<svg width="8" height="13" viewBox="0 0 8 13" fill="none" xmlns="http://www.w3.org/2000/svg">
<path d="M0.961987 12.4662C0.786233 12.2904 0.6875 12.052 0.6875 11.8034C0.6875 11.5548 0.786233 11.3164 0.961987 11.1406L5.60261 6.5L0.961987 1.85939C0.791214 1.68257 0.696719 1.44576 0.698855 1.19995C0.700991 0.954139 0.799587 0.719003 0.973407 0.545183C1.14723 0.371364 1.38236 0.272769 1.62817 0.270633C1.87398 0.268497 2.1108 0.362991 2.28761 0.533764L7.59105 5.83719C7.7668 6.013 7.86554 6.25141 7.86554 6.5C7.86554 6.74859 7.7668 6.987 7.59105 7.16281L2.28761 12.4662C2.1118 12.642 1.87339 12.7407 1.6248 12.7407C1.37621 12.7407 1.13779 12.642 0.961987 12.4662V12.4662Z" fill="#D5DBE1"/>
</svg>
