<svg width="8" height="13" viewBox="0 0 8 13" fill="none" xmlns="http://www.w3.org/2000/svg">
<path d="M7.03801 0.533764C7.21377 0.709571 7.3125 0.947984 7.3125 1.19657C7.3125 1.44517 7.21377 1.68358 7.03801 1.85939L2.39739 6.5L7.03801 11.1406C7.20879 11.3174 7.30328 11.5542 7.30114 11.8001C7.29901 12.0459 7.20041 12.281 7.02659 12.4548C6.85277 12.6286 6.61764 12.7272 6.37183 12.7294C6.12602 12.7315 5.8892 12.637 5.71239 12.4662L0.40895 7.16281C0.233196 6.987 0.134462 6.74859 0.134462 6.5C0.134462 6.25141 0.233196 6.013 0.40895 5.83719L5.71239 0.533764C5.8882 0.35801 6.12661 0.259277 6.3752 0.259277C6.62379 0.259277 6.86221 0.35801 7.03801 0.533764Z" fill="#D5DBE1"/>
</svg>
