<svg width="24" height="16" viewBox="0 0 24 16" fill="none" xmlns="http://www.w3.org/2000/svg">
<path fill-rule="evenodd" clip-rule="evenodd" d="M5.7679 0.25H5.8H11.2H11.2321H11.2321C12.045 0.249993 12.7006 0.249987 13.2315 0.293364C13.7781 0.338026 14.2582 0.432386 14.7025 0.658726C15.4081 1.01825 15.9817 1.59193 16.3413 2.29754C16.5676 2.74176 16.662 3.2219 16.7066 3.76853C16.75 4.29944 16.75 4.95505 16.75 5.76788V5.8V10.2V10.2321C16.75 11.045 16.75 11.7006 16.7066 12.2315C16.662 12.7781 16.5676 13.2582 16.3413 13.7025C15.9817 14.4081 15.4081 14.9817 14.7025 15.3413C14.2582 15.5676 13.7781 15.662 13.2315 15.7066C12.7006 15.75 12.0449 15.75 11.2321 15.75H11.2H5.8H5.76793C4.95507 15.75 4.29945 15.75 3.76853 15.7066C3.2219 15.662 2.74176 15.5676 2.29754 15.3413C1.59193 14.9817 1.01825 14.4081 0.658726 13.7025C0.432386 13.2582 0.338026 12.7781 0.293364 12.2315C0.249988 11.7006 0.249993 11.045 0.25 10.2321V10.2321V10.2321V10.2V5.8V5.7679V5.76788V5.76788C0.249993 4.95505 0.249988 4.29944 0.293364 3.76853C0.338026 3.2219 0.432386 2.74176 0.658726 2.29754C1.01825 1.59193 1.59193 1.01825 2.29754 0.658726C2.74176 0.432386 3.2219 0.338026 3.76853 0.293364C4.29944 0.249987 4.95505 0.249993 5.76788 0.25H5.7679ZM21.1182 3.22943C22.2849 2.54888 23.75 3.39041 23.75 4.74104V11.259C23.75 12.6096 22.2849 13.4511 21.1182 12.7706L19.1182 11.6039C18.5806 11.2903 18.25 10.7147 18.25 10.0923V5.90771C18.25 5.28529 18.5806 4.70971 19.1182 4.39609L21.1182 3.22943Z" fill="#65F29D"/>
</svg>
