<svg width="22" height="22" viewBox="0 0 22 22" fill="none" xmlns="http://www.w3.org/2000/svg">
<path fill-rule="evenodd" clip-rule="evenodd" d="M1.5 10.75C1.5 5.64137 5.64137 1.5 10.75 1.5H13.75C14.1642 1.5 14.5 1.16421 14.5 0.75C14.5 0.335786 14.1642 0 13.75 0H10.75C4.81294 0 0 4.81294 0 10.75C0 16.6871 4.81294 21.5 10.75 21.5C16.6871 21.5 21.5 16.6871 21.5 10.75V10.25C21.5 9.83579 21.1642 9.5 20.75 9.5C20.3358 9.5 20 9.83579 20 10.25V10.75C20 15.8586 15.8586 20 10.75 20C5.64137 20 1.5 15.8586 1.5 10.75ZM20.2803 5.28033C20.5732 4.98744 20.5732 4.51256 20.2803 4.21967C19.9874 3.92678 19.5126 3.92678 19.2197 4.21967L10.7158 12.7235L7.24388 9.68557C6.93215 9.41281 6.45833 9.44439 6.18557 9.75612C5.91281 10.0678 5.94439 10.5417 6.25612 10.8144L10.2561 14.3144C10.5533 14.5744 11.0011 14.5595 11.2803 14.2803L20.2803 5.28033Z" fill="#FF8A00"/>
</svg>
