<svg width="38" height="26" viewBox="0 0 38 26" fill="none" xmlns="http://www.w3.org/2000/svg">
<rect x="0.206787" width="27.586" height="23.9998" rx="6.62065" fill="#D9D9D9"/>
<rect x="0.206787" width="27.586" height="23.9998" rx="6.62065" fill="url(#paint0_linear_295_901)" fill-opacity="0.2"/>
<g filter="url(#filter0_d_295_901)">
<path d="M31.9247 2.26654L27.0662 21.5272L27.0181 21.7102H8.52778C7.79012 19.7958 7.17889 17.835 6.69802 15.8405C5.34014 10.0286 6.1876 6.86022 7.37213 5.14602C7.79099 4.52432 8.34386 4.00439 8.99005 3.62442C9.31701 3.42176 9.67482 3.27376 10.0494 3.18624C11.6737 2.96153 13.1889 2.76732 14.5949 2.6036C15.5162 2.49767 16.391 2.40458 17.2192 2.32432H17.3396H17.4503L17.85 2.2858C20.4213 2.04986 22.5688 1.92466 24.3504 1.87651C26.2777 1.80696 28.2073 1.8552 30.1287 2.02097C30.3839 2.04986 30.6102 2.07393 30.8028 2.10283C31.1723 2.14683 31.5389 2.21275 31.9006 2.30025L31.9247 2.26654Z" fill="url(#paint1_linear_295_901)"/>
<path d="M34.2892 15.2675C34.2892 15.2675 34.2892 15.2675 34.2892 15.3349C34.2872 15.3444 34.2872 15.3542 34.2892 15.3638C34.2892 15.4023 34.2892 15.4504 34.2603 15.513C34.2314 15.5756 34.2603 15.5612 34.2603 15.5901L34.2314 15.7249C33.6728 18.9077 32.9698 21.3875 32.9698 21.3875L27.0424 21.6909C27.0424 21.6909 27.0423 21.6283 27.0038 21.5079C26.7294 20.2608 25.2174 12.9273 26.4453 6.96609C27.1146 3.71103 29.0166 2.07387 30.8463 2.06424C31.2213 2.0625 31.5934 2.12941 31.9442 2.26166V2.26166C33.3454 2.7817 34.5251 4.35145 34.8333 6.96128C35.0741 9.48924 34.7418 12.5806 34.2892 15.2675Z" fill="url(#paint2_linear_295_901)"/>
<g style="mix-blend-mode:multiply" opacity="0.91">
<path d="M32.252 19.5576C31.3281 19.8964 30.3461 20.0486 29.3629 20.0054C28.9426 19.9877 28.5257 19.9214 28.1206 19.808C28.1206 19.808 25.7419 4.62574 30.663 3.91791H30.846C36.0368 3.59529 32.252 19.5576 32.252 19.5576Z" fill="#D42F55"/>
</g>
<path d="M31.5924 19.5577C30.8824 19.8173 30.1373 19.9683 29.3822 20.0055C28.9619 19.9877 28.545 19.9215 28.1399 19.808C28.1399 19.808 25.7612 4.6258 30.6823 3.91797C35.1219 4.61617 31.5924 19.5577 31.5924 19.5577Z" fill="url(#paint3_linear_295_901)"/>
<g style="mix-blend-mode:multiply" opacity="0.8">
<path d="M32.8346 20.3861C33.4461 19.6783 34.0047 16.8422 34.2069 15.7202C33.6484 18.903 32.9454 21.3829 32.9454 21.3829L27.0179 21.6862H8.72021L12.1582 20.5643C13.1892 20.8848 14.2542 21.0835 15.3314 21.1566C17.479 21.3877 26.05 21.4936 26.9986 21.5032H27.0853C27.2057 21.4984 32.0786 21.2625 32.8346 20.3861Z" fill="#D42F55"/>
</g>
<path d="M5.99976 12.2916L25.925 11.9738L34.6886 11.7234C34.6886 11.7234 26.6617 12.2819 25.925 12.2916C25.1882 12.3012 5.99976 12.2916 5.99976 12.2916Z" fill="#97001A"/>
<path d="M31.2215 2.05952C31.2215 2.05952 30.74 2.01618 30.1526 1.97766C29.6319 1.93173 29.1083 1.93173 28.5876 1.97766C28.0772 2.07878 25.1111 3.06108 24.3021 8.94522C23.6569 13.6689 25.0244 21.5899 25.2652 21.6958C25.6098 21.7496 25.9606 21.7496 26.3052 21.6958C25.91 21.9242 25.4899 22.1068 25.0533 22.2399C24.8125 22.2399 21.8945 22.4518 21.7212 22.2399C21.6503 22.065 21.6002 21.8824 21.5719 21.6958C20.8246 17.7294 20.537 13.6901 20.7148 9.65787C20.9989 4.99678 22.8768 2.86365 24.2684 1.91506L24.3551 1.85728C24.7804 1.56837 25.2506 1.35196 25.7467 1.21686C27.102 1.06236 28.4661 0.998017 29.8299 1.02426C30.3115 1.13982 31.13 1.98729 31.2071 2.07878L31.2215 2.05952Z" fill="url(#paint4_linear_295_901)"/>
<path d="M17.455 2.26639H17.3443H17.2239C16.6461 2.31935 15.1534 2.46381 14.5996 2.54567H14.484C14.0025 2.64197 11.0749 3.59538 10.6319 9.28691C10.2852 13.7843 12.0765 21.2623 12.3798 21.633C12.7262 21.6841 13.0783 21.6841 13.4247 21.633C13.0401 21.8529 12.6313 22.0274 12.2065 22.1531C11.9609 22.1531 9.05736 22.3601 8.87439 22.1531C8.79026 21.9799 8.7272 21.7972 8.68659 21.6089C7.694 17.7981 7.15258 13.8838 7.07349 9.94659C7.07349 6.69635 7.96911 4.71731 8.97067 3.51833C9.15019 3.30098 9.3449 3.09663 9.55331 2.9068C10.1232 2.36568 10.8179 1.97367 11.5757 1.76561C12.8754 1.53703 14.1989 1.47393 15.5145 1.57781C16.1658 1.76127 16.8031 1.99139 17.4213 2.26639H17.455Z" fill="url(#paint5_linear_295_901)"/>
<g style="mix-blend-mode:multiply" opacity="0.5">
<path d="M29.8299 1.00014C28.159 1.06274 24.9136 2.89251 23.8398 7.78954C22.8383 12.3399 24.8029 22.2977 25.0532 22.2351C25.3036 22.1725 26.3052 21.691 26.3052 21.691C26.0342 21.5965 25.7769 21.467 25.5396 21.3057C25.2603 21.0939 24.042 12.5421 24.9521 7.95807C25.8622 3.37403 29.3243 1.94392 29.3243 1.94392L31.2167 2.05948C31.2167 2.05948 30.2584 0.985699 29.8299 1.00014Z" fill="#D42F55"/>
</g>
<g style="mix-blend-mode:multiply" opacity="0.5">
<path d="M17.4554 2.26643C16.6865 1.96868 15.872 1.80579 15.0478 1.78491C13.9499 1.82825 11.1956 2.77684 10.1796 7.56312C9.16363 12.3494 11.9227 22.1242 12.2213 22.2109C12.5198 22.2976 13.6995 21.662 13.6995 21.662C13.3079 21.5862 12.9389 21.4214 12.6209 21.1804C12.3079 20.8675 10.6467 12.2483 11.1764 7.5872C11.5953 4.1925 14.287 2.26643 17.4554 2.26643Z" fill="#D42F55"/>
</g>
<g style="mix-blend-mode:soft-light">
<path d="M20.9652 7.58724C20.8352 8.89697 23.2765 7.99653 23.5558 7.89541C23.8351 7.79429 24.6536 4.73184 25.9297 2.89244C27.2057 1.05305 24.6633 1.44789 23.941 2.13165C22.2902 3.50465 21.2259 5.456 20.9652 7.58724V7.58724Z" fill="white"/>
</g>
<g style="mix-blend-mode:soft-light">
<path d="M7.20337 8.14086C7.12151 9.1039 9.35576 8.69461 9.77468 8.14086C10.1936 7.58712 10.9592 4.35132 12.2738 2.90677C13.5883 1.46221 7.85341 1.87632 7.20337 8.14086Z" fill="white"/>
</g>
<g style="mix-blend-mode:multiply" opacity="0.5">
<path d="M21.0421 8.52621C20.8207 8.52621 20.7195 10.3512 20.9603 10.7701C21.2011 11.189 23.1127 10.7701 23.3342 10.7701C23.5557 10.7701 23.6472 8.21804 23.6231 8.15063C23.599 8.08321 22.0726 8.62251 21.0421 8.52621Z" fill="#FF3355"/>
</g>
<g style="mix-blend-mode:multiply" opacity="0.5">
<path d="M7.34321 8.71864C7.14097 8.65604 7.08319 10.9914 7.34321 11.2514C7.60323 11.5114 9.68341 11.2851 9.83749 11.2514C9.99158 11.2177 10.006 9.0557 9.96266 8.71864C9.91933 8.38158 8.38329 9.0557 7.34321 8.71864Z" fill="#FF3355"/>
</g>
<path d="M10.3962 9.54214C10.1323 10.725 10.1323 11.9514 10.3962 13.1343C10.3962 13.1343 14.388 15.0603 15.4328 15.2529C16.4777 15.4456 20.6284 13.1872 20.6284 13.1343C20.6284 13.0813 20.4551 9.9418 20.8066 8.71875L10.3962 9.54214Z" fill="url(#paint6_linear_295_901)"/>
<path d="M10.3958 9.54211C10.3958 9.54211 18.0567 8.19386 20.8206 8.71872C20.8206 8.71872 12.6204 9.62879 10.3958 9.54211Z" fill="#FFE016"/>
<g style="mix-blend-mode:multiply" opacity="0.5">
<path d="M15.7121 15.2674C14.2242 15.3252 20.6332 12.7009 20.6332 12.7009V13.5147C20.6332 13.5147 17.3878 15.1904 15.7121 15.2674Z" fill="#D42F55"/>
</g>
<g style="mix-blend-mode:soft-light">
<path d="M10.2274 10.6593C10.4537 12.1039 13.4198 10.563 16.5449 10.3897C19.6699 10.2163 20.4211 9.99001 20.6426 9.07513C20.8641 8.16024 17.2094 9.31589 14.1517 9.24847C11.0941 9.18106 10.0926 9.77333 10.2274 10.6593Z" fill="white"/>
</g>
<g style="mix-blend-mode:multiply" opacity="0.5">
<path d="M10.3958 11.6609C10.5355 12.6528 14.5128 10.7701 17.3201 10.8905C20.1273 11.0108 20.6329 11.0686 20.6377 10.0719C20.6426 9.07514 20.2959 10.1008 18.8032 10.3512C17.3105 10.6016 16.1596 10.799 13.8002 11.0975C12.6704 11.2301 11.5333 11.2912 10.3958 11.2805C10.1984 11.3286 10.3958 11.6609 10.3958 11.6609Z" fill="#FF3355"/>
</g>
<path d="M15.1244 12.1569C15.1244 12.1569 13.9302 10.7798 15.2159 10.5775C16.5015 10.3753 15.4711 12.1569 15.4711 12.1569C15.4711 12.1569 16.0585 13.6015 16.0489 13.7218C16.0393 13.8422 14.7103 13.7604 14.6044 13.7218C14.4984 13.6833 15.1244 12.1569 15.1244 12.1569Z" fill="url(#paint7_linear_295_901)"/>
<path d="M10.3958 13.1343C10.3958 13.1343 13.906 14.6318 15.052 14.6559C16.198 14.6799 19.5638 13.1343 19.5638 13.1343C19.5638 13.1343 15.8417 15.017 15.0376 14.94C14.2335 14.8629 10.3958 13.1343 10.3958 13.1343Z" fill="#FFE016"/>
<path d="M12.4714 9.48935C11.4506 10.2598 13.2274 10.3416 13.916 10.0046C14.6046 9.66751 14.5901 9.25341 14.5901 9.25341C14.5901 9.25341 12.8326 9.21007 12.4714 9.48935Z" fill="white"/>
<path d="M24.5331 2.89245C23.9601 3.59547 24.196 4.5585 24.5331 4.1444C24.8702 3.73029 25.4962 2.95023 25.1832 2.89245C24.9676 2.86202 24.7487 2.86202 24.5331 2.89245V2.89245Z" fill="white"/>
<path d="M10.3961 3.22939C10.0734 2.99345 9.5486 4.11057 9.83751 4.24539C10.1264 4.38022 10.8102 3.53275 10.3961 3.22939Z" fill="white"/>
<g style="mix-blend-mode:multiply" opacity="0.2">
<path d="M8.6433 17.9253C8.16178 18.5417 8.76849 21.4404 9.12482 21.8834C9.48114 22.3264 11.7057 22.0567 11.8309 21.8834C11.9561 21.71 10.5934 17.7231 10.502 17.2608C10.4105 16.7986 9.25483 17.1019 8.6433 17.9253Z" fill="#FF3355"/>
</g>
<g style="mix-blend-mode:multiply" opacity="0.2">
<path d="M21.4615 18.8116C21.3604 17.1937 23.2142 17.8774 23.8065 18.1471C24.3988 18.4167 24.7021 21.5177 24.5673 21.8837C24.4325 22.2496 22.2175 22.0763 21.8949 21.8837C21.5723 21.6911 21.4759 18.9994 21.4615 18.8116Z" fill="#FF3355"/>
</g>
<g style="mix-blend-mode:multiply" opacity="0.5">
<path d="M24.4802 5.75758C23.6568 7.49104 25.8573 4.48156 27.0274 3.38851C27.7414 2.72774 28.5839 2.22123 29.5024 1.90062C29.4207 1.74024 29.2922 1.60839 29.1341 1.52243C28.9759 1.43647 28.7955 1.40045 28.6164 1.4191C27.9182 1.43355 25.9729 2.63734 24.4802 5.75758Z" fill="#D42F55"/>
</g>
<g style="mix-blend-mode:multiply" opacity="0.5">
<path d="M10.5161 6.51334C11.1418 5.60361 11.8546 4.75697 12.6444 3.98537C13.8964 2.78639 16.2125 2.39637 16.2125 2.39637C15.7411 2.0391 15.1617 1.85389 14.5705 1.87151C13.593 1.9004 11.4454 3.25828 10.5161 6.51334Z" fill="#D42F55"/>
</g>
<path d="M34.8955 10.0718C35.113 10.4908 35.2951 10.9273 35.4396 11.3767C35.48 12.299 35.3843 13.2222 35.1555 14.1165C34.9314 14.4085 34.6615 14.6622 34.3562 14.8677L34.8955 10.0718Z" fill="#FF5215"/>
<path d="M10.6707 16.4473C10.6707 16.4473 10.9692 21.0554 12.2308 22.2255C11.5621 20.3426 11.0405 18.4108 10.6707 16.4473V16.4473Z" fill="#FFE016"/>
<path d="M23.5559 13.0571C23.5559 13.0571 23.4981 17.7182 24.6249 20.6747C24.6249 20.6747 23.97 16.3796 23.5559 13.0571Z" fill="#FFE016"/>
<g style="mix-blend-mode:multiply" opacity="0.8">
<path d="M28.1157 7.03356C28.4239 7.2358 29.1895 4.31299 30.8218 4.19261C32.4542 4.07223 32.5409 8.58405 33.2005 9.24854C33.8602 9.91304 33.7495 4.86192 31.756 4.05297C29.7625 3.24402 28.6021 5.459 28.1157 7.03356Z" fill="#D42F55"/>
</g>
<g style="mix-blend-mode:soft-light">
<path d="M11.6433 7.21651C11.5999 8.10732 19.0634 7.66432 19.8964 6.81203C20.7295 5.95975 22.6411 3.02249 23.4308 2.42541C24.2205 1.82832 17.3829 2.13168 15.611 2.65654C13.839 3.18139 11.7492 5.07857 11.6433 7.21651Z" fill="#FFA200"/>
</g>
<g style="mix-blend-mode:soft-light">
<path d="M25.0054 7.7074C25.2895 8.04928 25.8432 6.74436 26.9314 4.90015C28.0197 3.05594 29.7002 2.49256 29.5172 2.21328C29.3342 1.934 25.3858 3.76377 25.0054 7.7074Z" fill="#FFA200"/>
</g>
<g style="mix-blend-mode:multiply" opacity="0.5">
<path d="M27.0661 21.527C27.0661 21.527 25.8046 13.2641 25.949 12.7104C26.0935 12.1566 27.1095 12.2289 27.2636 12.3203C27.4177 12.4118 27.7451 19.2783 28.1159 20.2654C28.4866 21.2525 27.0661 21.527 27.0661 21.527Z" fill="#FF3355"/>
</g>
<path d="M24.4468 12.2966C24.4468 12.2966 25.5928 12.4796 25.9684 12.5181C26.5345 12.4695 27.0952 12.3712 27.6441 12.2244L24.4468 12.2966Z" fill="#FF740E"/>
<path d="M6.1106 12.2917C6.1106 12.2917 6.11062 12.5758 6.22618 12.6095C6.55804 12.5421 6.88113 12.4371 7.18922 12.2966L6.1106 12.2917Z" fill="#FF740E"/>
<g style="mix-blend-mode:multiply" opacity="0.5">
<path d="M20.6281 14.1166C20.6281 13.5003 16.3234 15.4167 14.9703 17.0924C13.6173 18.7681 13.1165 20.6267 13.7328 21.1612C14.3492 21.6957 20.1611 21.5994 20.8111 21.3971C21.4612 21.1949 20.6281 14.1166 20.6281 14.1166Z" fill="#FF3355"/>
</g>
<g style="mix-blend-mode:multiply" opacity="0.5">
<path d="M26.7483 6.28739C26.4209 7.4623 28.8573 4.56356 30.8653 3.92314C32.8732 3.28272 31.7513 2.31487 31.0723 2.09338C30.3934 1.87188 27.8943 2.15116 26.7483 6.28739Z" fill="#FF3355"/>
</g>
<g style="mix-blend-mode:soft-light">
<path d="M21.0714 3.1958C20.8499 2.7528 19.0202 3.71102 18.9624 3.94215C18.9046 4.17328 21.4615 3.9903 21.0714 3.1958Z" fill="white"/>
</g>
<g style="mix-blend-mode:multiply" opacity="0.8">
<path d="M6.69802 15.8212C5.34014 10.0093 6.1876 6.84091 7.37213 5.12671C6.99846 5.88828 6.73425 6.69882 6.58728 7.5343C6.12503 9.91781 6.48616 13.9337 6.69802 15.8212Z" fill="#D42F55"/>
</g>
<g style="mix-blend-mode:multiply" opacity="0.8">
<path d="M15.5383 1.65985C16.1794 1.81774 16.8085 2.02048 17.4211 2.26656L16.877 2.29545C15.5974 1.89194 14.2501 1.74788 12.9141 1.87171C11.7483 2.05975 10.6211 2.4371 9.57715 2.98884C10.147 2.44771 10.8417 2.05571 11.5995 1.84764C12.8993 1.61906 14.2227 1.55596 15.5383 1.65985V1.65985Z" fill="#D42F55"/>
</g>
<g style="mix-blend-mode:multiply" opacity="0.8">
<path d="M31.2217 2.0547C29.8124 1.43047 28.2712 1.16258 26.7339 1.27465C25.0727 1.49133 24.543 1.72727 24.3841 1.83321C24.3596 1.84814 24.3384 1.86778 24.3215 1.89099H24.283L17.8547 2.26657C20.426 2.03063 22.5736 1.90543 24.3552 1.85728C24.7805 1.56837 25.2507 1.35196 25.7468 1.21686C27.1021 1.06236 28.4662 0.998017 29.8301 1.02426C30.326 1.11575 31.1302 1.96803 31.2217 2.0547Z" fill="#D42F55"/>
</g>
<g style="mix-blend-mode:soft-light">
<path d="M24.7261 11.9501C25.049 11.9919 25.377 11.9657 25.6891 11.873C25.954 11.7286 26.1996 8.29053 26.1996 8.29053C25.8327 8.47391 25.5155 8.74316 25.275 9.0754C24.7117 9.73508 24.7261 11.9501 24.7261 11.9501Z" fill="#FFE2C2"/>
</g>
<g style="mix-blend-mode:soft-light">
<path d="M6.40896 12.2677C6.07672 12.1232 6.3512 9.99012 6.5438 9.54712C6.73641 9.10412 7.02532 11.8295 7.02532 12.0895C7.02532 12.3496 6.40896 12.2677 6.40896 12.2677Z" fill="#FFE2C2"/>
</g>
<g style="mix-blend-mode:soft-light">
<path d="M28.1399 19.8081C29.2612 20.0663 30.4338 19.9876 31.5105 19.5818H32.2328C32.2328 19.5818 30.2586 21.0456 28.1399 19.8081Z" fill="white"/>
</g>
</g>
<defs>
<filter id="filter0_d_295_901" x="4.36328" y="1" width="32.7219" height="24.6069" filterUnits="userSpaceOnUse" color-interpolation-filters="sRGB">
<feFlood flood-opacity="0" result="BackgroundImageFix"/>
<feColorMatrix in="SourceAlpha" type="matrix" values="0 0 0 0 0 0 0 0 0 0 0 0 0 0 0 0 0 0 127 0" result="hardAlpha"/>
<feOffset dy="1.63648"/>
<feGaussianBlur stdDeviation="0.818238"/>
<feComposite in2="hardAlpha" operator="out"/>
<feColorMatrix type="matrix" values="0 0 0 0 0.558317 0 0 0 0 0.167477 0 0 0 0 0.167477 0 0 0 0.25 0"/>
<feBlend mode="normal" in2="BackgroundImageFix" result="effect1_dropShadow_295_901"/>
<feBlend mode="normal" in="SourceGraphic" in2="effect1_dropShadow_295_901" result="shape"/>
</filter>
<linearGradient id="paint0_linear_295_901" x1="13.9998" y1="0" x2="13.9998" y2="23.9998" gradientUnits="userSpaceOnUse">
<stop offset="0.197671" stop-color="white"/>
<stop offset="0.798481" stop-opacity="0"/>
</linearGradient>
<linearGradient id="paint1_linear_295_901" x1="18.9623" y1="21.691" x2="18.9623" y2="1.8091" gradientUnits="userSpaceOnUse">
<stop stop-color="#D83303"/>
<stop offset="1" stop-color="#FF8911"/>
</linearGradient>
<linearGradient id="paint2_linear_295_901" x1="30.4226" y1="21.6861" x2="30.4226" y2="2.05943" gradientUnits="userSpaceOnUse">
<stop stop-color="#A71100"/>
<stop offset="0.65" stop-color="#D83303"/>
<stop offset="1" stop-color="#EC5C11"/>
</linearGradient>
<linearGradient id="paint3_linear_295_901" x1="30.2441" y1="20.0055" x2="30.2441" y2="3.94204" gradientUnits="userSpaceOnUse">
<stop stop-color="#A71100"/>
<stop offset="1" stop-color="#D83303"/>
</linearGradient>
<linearGradient id="paint4_linear_295_901" x1="25.9296" y1="22.3266" x2="25.9296" y2="0.985735" gradientUnits="userSpaceOnUse">
<stop stop-color="#FF8B00"/>
<stop offset="1" stop-color="#FFAE00"/>
</linearGradient>
<linearGradient id="paint5_linear_295_901" x1="12.2739" y1="22.3264" x2="12.2739" y2="1.59708" gradientUnits="userSpaceOnUse">
<stop stop-color="#FF8B00"/>
<stop offset="1" stop-color="#FFAE00"/>
</linearGradient>
<linearGradient id="paint6_linear_295_901" x1="15.5099" y1="15.2626" x2="15.5099" y2="8.71875" gradientUnits="userSpaceOnUse">
<stop stop-color="#FF8B00"/>
<stop offset="1" stop-color="#FFAE00"/>
</linearGradient>
<linearGradient id="paint7_linear_295_901" x1="15.317" y1="13.7796" x2="15.317" y2="10.5631" gradientUnits="userSpaceOnUse">
<stop stop-color="#DE330E"/>
<stop offset="1" stop-color="#930000"/>
</linearGradient>
</defs>
</svg>
