<svg width="606" height="543" viewBox="0 0 606 543" fill="none" xmlns="http://www.w3.org/2000/svg">
<ellipse cx="303" cy="516" rx="303" ry="27" fill="#FFF3F3"/>
<g clip-path="url(#clip0_233_255)">
<path fill-rule="evenodd" clip-rule="evenodd" d="M106.395 206.544L101.968 10.4686C101.953 9.45922 102.138 8.45691 102.511 7.51892C102.884 6.58093 103.439 5.72565 104.142 5.00191C104.846 4.27817 105.686 3.70014 106.613 3.30085C107.54 2.90156 108.537 2.68883 109.546 2.67479L584.954 -6.57723e-06C585.979 -0.0129283 586.996 0.181679 587.943 0.572097C588.891 0.962514 589.749 1.54066 590.467 2.27172C591.185 3.00278 591.748 3.87162 592.122 4.82593C592.495 5.78023 592.672 6.80026 592.64 7.82456L586.983 206.821C586.909 208.785 586.085 210.645 584.681 212.02C583.278 213.396 581.4 214.181 579.435 214.215L114.158 213.984C112.148 214.005 110.21 213.238 108.759 211.848C107.308 210.457 106.459 208.553 106.395 206.544Z" fill="url(#paint0_linear_233_255)"/>
<path fill-rule="evenodd" clip-rule="evenodd" d="M114.926 206.098L110.253 12.7438L584.201 10.2534L579.328 208.327L114.926 206.098Z" fill="url(#paint1_linear_233_255)"/>
<path fill-rule="evenodd" clip-rule="evenodd" d="M120.691 199.504L116.31 17.6937L578.144 12.7592L574.332 201.932L120.691 199.504Z" fill="url(#paint2_linear_233_255)"/>
<path fill-rule="evenodd" clip-rule="evenodd" d="M235.708 1.92155L243.563 10.2534L448.109 8.03978L458.746 0.661011L235.708 1.92155Z" fill="url(#paint3_linear_233_255)"/>
<g style="mix-blend-mode:soft-light" opacity="0.5">
<path fill-rule="evenodd" clip-rule="evenodd" d="M206.331 12.2518L583.478 75.1712L585.108 10.2534L206.331 12.2518Z" fill="#CFC7FF"/>
</g>
<path style="mix-blend-mode:multiply" opacity="0.2" fill-rule="evenodd" clip-rule="evenodd" d="M114.896 166.868L500.513 203.869L115.849 206.098L114.896 166.868Z" fill="url(#paint4_linear_233_255)"/>
<path fill-rule="evenodd" clip-rule="evenodd" d="M246.238 209.619L244.378 218.827H443.835L441.791 209.619H246.238Z" fill="url(#paint5_linear_233_255)"/>
<path fill-rule="evenodd" clip-rule="evenodd" d="M246.238 209.619L250.096 211.402H438.824L441.791 209.619H246.238Z" fill="#E4E0FF"/>
<path fill-rule="evenodd" clip-rule="evenodd" d="M305.622 209.618L308.112 199.457C308.112 199.457 337.581 187.636 368.987 199.595L370.985 209.618H305.622Z" fill="url(#paint6_linear_233_255)"/>
<path d="M309.834 209.619C309.834 209.619 319.257 200.011 338.319 199.519C357.381 199.027 366.543 209.619 366.543 209.619H309.834Z" fill="url(#paint7_radial_233_255)"/>
<path d="M281.364 86.547C281.364 82.1607 282.471 78.8044 284.684 76.478C287.352 74.2051 290.742 72.9567 294.246 72.9567C297.75 72.9567 301.14 74.2051 303.808 76.478C306.021 78.8147 307.128 82.171 307.128 86.547V114.617C307.128 118.983 306.021 122.303 303.808 124.686C301.136 126.95 297.748 128.193 294.246 128.193C290.744 128.193 287.356 126.95 284.684 124.686C282.471 122.349 281.364 118.983 281.364 114.617V86.547ZM289.849 115.155C289.698 116.637 290.128 118.119 291.049 119.29C291.938 120.055 293.073 120.476 294.246 120.476C295.419 120.476 296.554 120.055 297.443 119.29C298.364 118.119 298.794 116.637 298.643 115.155V85.9475C298.793 84.4706 298.363 82.9932 297.443 81.8276C296.558 81.0536 295.422 80.6269 294.246 80.6269C293.07 80.6269 291.934 81.0536 291.049 81.8276C290.129 82.9932 289.699 84.4706 289.849 85.9475V115.155Z" fill="#5D526D"/>
<path d="M338.057 114.617C338.3 118.29 337.079 121.91 334.66 124.686C332.395 127.022 329.106 128.191 324.791 128.191C320.477 128.191 317.187 127.022 314.922 124.686C312.647 122.349 311.525 118.982 311.525 114.617V110.374C311.472 108.039 311.891 105.718 312.754 103.549C313.543 101.652 314.96 100.083 316.767 99.1059C313.262 97.2151 311.525 93.5872 311.525 88.2376V86.5467C311.525 82.1655 312.647 78.8604 314.922 76.4777C317.197 74.095 320.471 72.9574 324.791 72.9574C329.111 72.9574 332.4 74.1411 334.66 76.4777C336.92 78.8143 338.057 82.1655 338.057 86.5467V88.2376C338.057 93.5411 336.305 97.1536 332.815 99.1059C334.618 100.084 336.03 101.653 336.812 103.549C337.689 105.715 338.112 108.038 338.057 110.374V114.617ZM320.01 89.8517C319.918 90.6502 319.99 91.4593 320.222 92.2288C320.455 92.9982 320.843 93.7118 321.363 94.3251C322.299 95.1725 323.53 95.6195 324.791 95.5703C326.04 95.6003 327.254 95.1553 328.188 94.3251C328.717 93.7162 329.112 93.0041 329.351 92.2339C329.589 91.4638 329.664 90.6525 329.572 89.8517V86.8541C329.572 84.4253 329.111 82.7958 328.188 81.9503C327.247 81.1286 326.04 80.6758 324.791 80.6758C323.542 80.6758 322.335 81.1286 321.394 81.9503C320.471 82.7958 320.01 84.4253 320.01 86.8541V89.8517ZM320.01 114.448C320.01 116.861 320.471 118.491 321.394 119.305C322.328 120.134 323.543 120.574 324.791 120.535C326.026 120.58 327.229 120.138 328.142 119.305C329.049 118.491 329.51 116.861 329.572 114.448V109.436C329.705 107.797 329.253 106.163 328.296 104.824C327.853 104.343 327.309 103.965 326.703 103.718C326.098 103.471 325.445 103.36 324.791 103.395C324.136 103.362 323.481 103.473 322.873 103.72C322.265 103.967 321.718 104.344 321.271 104.824C320.319 106.165 319.873 107.798 320.01 109.436V114.448Z" fill="#5D526D"/>
<path d="M351.324 90.0056V98.1837H343.146V90.0056H351.324ZM351.324 119.398V127.576H343.146V119.398H351.324Z" fill="#5D526D"/>
<path d="M373.844 86.8542C374.04 85.129 373.615 83.3904 372.645 81.9504C372.233 81.5237 371.735 81.1894 371.184 80.9695C370.632 80.7496 370.041 80.649 369.448 80.6745C368.861 80.6447 368.275 80.7358 367.725 80.942C367.175 81.1483 366.673 81.4653 366.25 81.8735C365.331 83.0391 364.901 84.5165 365.051 85.9933V89.4675H357.027V86.5468C357.027 82.1605 358.093 78.8042 360.224 76.4778C362.85 74.2061 366.206 72.9559 369.679 72.9559C373.151 72.9559 376.507 74.2061 379.133 76.4778C381.254 78.8144 382.33 82.1656 382.33 86.5468V87.9303C382.33 93.6949 380.347 97.3843 376.381 99.0292C378.406 99.8224 380.055 101.355 380.993 103.318C381.95 105.544 382.412 107.952 382.345 110.374V114.617C382.584 118.256 381.442 121.851 379.148 124.686C377.006 127.022 373.855 128.191 369.694 128.191C365.533 128.191 362.377 127.022 360.224 124.686C358.088 122.349 357.027 118.983 357.027 114.617V110.143H365.051V115.155C364.9 116.637 365.33 118.119 366.25 119.29C366.676 119.693 367.178 120.006 367.728 120.209C368.278 120.413 368.863 120.503 369.448 120.474C370.037 120.504 370.627 120.41 371.177 120.199C371.728 119.987 372.228 119.661 372.645 119.244C373.619 117.823 374.044 116.097 373.844 114.386V110.143C374.017 108.274 373.557 106.401 372.538 104.825C371.988 104.271 371.322 103.846 370.589 103.581C369.855 103.315 369.072 103.215 368.295 103.287H365.436V95.6011H368.756C370.115 95.6792 371.452 95.2336 372.492 94.356C373.008 93.7407 373.395 93.027 373.627 92.258C373.86 91.4891 373.934 90.681 373.844 89.8826V86.8542Z" fill="#5D526D"/>
<path d="M387.342 86.547C387.342 82.1607 388.448 78.8044 390.662 76.478C393.329 74.2051 396.719 72.9567 400.224 72.9567C403.728 72.9567 407.118 74.2051 409.785 76.478C411.999 78.8147 413.106 82.171 413.106 86.547V114.617C413.106 118.983 411.999 122.303 409.785 124.686C407.114 126.95 403.726 128.193 400.224 128.193C396.722 128.193 393.333 126.95 390.662 124.686C388.448 122.349 387.342 118.983 387.342 114.617V86.547ZM395.827 115.155C395.676 116.637 396.106 118.119 397.026 119.29C397.916 120.055 399.05 120.476 400.224 120.476C401.397 120.476 402.531 120.055 403.421 119.29C404.341 118.119 404.771 116.637 404.62 115.155V85.9475C404.77 84.4706 404.34 82.9932 403.421 81.8276C402.536 81.0536 401.4 80.6269 400.224 80.6269C399.048 80.6269 397.911 81.0536 397.026 81.8276C396.107 82.9932 395.677 84.4706 395.827 85.9475V115.155Z" fill="#5D526D"/>
<path fill-rule="evenodd" clip-rule="evenodd" d="M305.652 391.198L305.514 399.898L383.683 396.055L381.331 487.952H313.692L314.491 496.652H388.264L391.108 390.444L305.652 391.198Z" fill="url(#paint8_linear_233_255)"/>
<path fill-rule="evenodd" clip-rule="evenodd" d="M391.108 390.444L398.825 390.475L392.63 496.652H388.264L391.108 390.444Z" fill="url(#paint9_linear_233_255)"/>
<path fill-rule="evenodd" clip-rule="evenodd" d="M322.301 487.952V496.653H312.385V487.521L322.301 487.952Z" fill="#11132D"/>
<path fill-rule="evenodd" clip-rule="evenodd" d="M219.228 391.859C219.228 391.859 201.227 304.39 204.871 246.589C204.871 246.589 250.142 220.349 298.642 248.865C298.642 248.865 319.072 297.119 324.776 375.764C324.776 375.764 380.27 375.441 395.028 378.839C409.785 382.236 411.937 390.537 411.937 390.537L219.228 391.859Z" fill="url(#paint10_linear_233_255)"/>
<path fill-rule="evenodd" clip-rule="evenodd" d="M237.768 381.052C282.025 375.472 341.87 373.504 394.997 378.838C394.997 378.838 397.011 372.812 324.468 372.243C296.583 373.642 266.76 376.963 237.768 381.052Z" fill="#EAE3FF"/>
<path style="mix-blend-mode:multiply" opacity="0.2" fill-rule="evenodd" clip-rule="evenodd" d="M239.766 372.859C239.766 372.859 217.968 306.081 220.919 250.94C228.606 243.623 253.509 230.003 291.909 247.481C291.909 247.481 321.993 304.605 314.338 370.092C314.338 370.092 268.236 382.19 239.766 372.859Z" fill="url(#paint11_linear_233_255)"/>
<path style="mix-blend-mode:multiply" opacity="0.2" fill-rule="evenodd" clip-rule="evenodd" d="M233.417 243.622C233.417 243.622 260.042 233.446 283.055 253.891C283.055 253.891 310.818 288.356 315.583 348.924C315.583 348.924 319.611 301.899 291.909 247.465C291.909 247.481 264.316 231.017 233.417 243.622Z" fill="url(#paint12_linear_233_255)"/>
<path fill-rule="evenodd" clip-rule="evenodd" d="M206.5 293.89L217.261 291.246L234.001 309.693L242.687 353.858L231.526 370.767H215.585C210.543 345.42 207.505 319.715 206.5 293.89Z" fill="url(#paint13_linear_233_255)"/>
<g style="mix-blend-mode:multiply" opacity="0.5">
<path fill-rule="evenodd" clip-rule="evenodd" d="M204.871 246.589C204.871 246.589 210.943 244.852 213.479 249.187C213.479 249.187 218.583 335.872 234.832 381.052C234.832 381.052 279.965 373.535 295.537 379.238L302.24 391.167L219.229 391.859C219.229 391.859 203.748 311.707 204.871 246.589Z" fill="#757AA4"/>
</g>
<path fill-rule="evenodd" clip-rule="evenodd" d="M310.31 286.942L303.731 301.93L307.021 347.048L323.054 357.932C323.054 357.932 318.273 314.474 310.31 286.942Z" fill="url(#paint14_linear_233_255)"/>
<path fill-rule="evenodd" clip-rule="evenodd" d="M219.213 391.859L220.843 400.544L291.233 396.778L293.124 488.674H224.547L225.301 497.375H299.734L298.304 391.167L219.213 391.859Z" fill="url(#paint15_linear_233_255)"/>
<path fill-rule="evenodd" clip-rule="evenodd" d="M298.304 391.167L305.652 391.198L303.9 497.375H299.734L298.304 391.167Z" fill="url(#paint16_linear_233_255)"/>
<path fill-rule="evenodd" clip-rule="evenodd" d="M232.756 488.675V497.376H223.302V488.244L232.756 488.675Z" fill="#11132D"/>
<g style="mix-blend-mode:multiply" opacity="0.5">
<path fill-rule="evenodd" clip-rule="evenodd" d="M323.054 357.932L232.91 375.318L217.261 381.052L212.342 349.154L320.256 336.118C320.256 336.118 322.7 355.457 323.054 357.932Z" fill="#755690"/>
</g>
<path fill-rule="evenodd" clip-rule="evenodd" d="M403.068 310.723C403.068 310.723 405.081 299.224 414.628 299.132C424.789 299.04 427.602 310.723 427.602 310.723H403.068Z" fill="url(#paint17_linear_233_255)"/>
<path d="M322.47 305.942H224.732V312.214H322.47V305.942Z" fill="#11132D"/>
<path d="M462.451 354.135C462.451 354.135 457.348 363.758 462.789 498.774H468.124L468.523 354.135H462.451Z" fill="url(#paint18_linear_233_255)"/>
<path fill-rule="evenodd" clip-rule="evenodd" d="M535.655 310.723H234.939L236.353 349.631H531.197L535.655 310.723Z" fill="url(#paint19_linear_233_255)"/>
<path d="M234.939 310.723L192.081 314.382L194.494 349.631H236.353L234.939 310.723Z" fill="url(#paint20_linear_233_255)"/>
<path d="M244.977 349.63L240.842 502.909H234.063L236.353 349.63H244.977Z" fill="url(#paint21_linear_233_255)"/>
<path d="M236.353 349.63L234.063 502.909H199.998L194.51 349.63H236.353ZM202.303 497.129H229.467L230.558 354.719H199.091L202.303 497.129Z" fill="url(#paint22_linear_233_255)"/>
<path d="M206.147 354.719L207.453 497.129H202.303L199.075 354.719H206.147Z" fill="url(#paint23_linear_233_255)"/>
<path d="M531.197 349.63L520.805 502.909H512.273L523.695 349.63H531.197Z" fill="url(#paint24_linear_233_255)"/>
<path d="M523.695 349.63L514.333 502.894H458.024L455.149 349.63H523.695ZM462.789 498.743H508.907L517.469 354.104H462.451L462.789 498.743Z" fill="url(#paint25_linear_233_255)"/>
<g style="mix-blend-mode:multiply" opacity="0.5">
<path d="M455.149 349.63L455.872 388.246L463.65 383.819L468.446 381.098L468.523 354.15H515.778L523.695 349.63H455.149Z" fill="#745772"/>
</g>
<g style="mix-blend-mode:multiply" opacity="0.5">
<path d="M194.494 349.631L236.307 348.355L531.197 349.631H194.494Z" fill="#884065"/>
</g>
<g style="mix-blend-mode:multiply" opacity="0.5">
<path d="M206.147 354.719L199.675 363.189L199.075 354.719H206.147Z" fill="#745772"/>
</g>
<path fill-rule="evenodd" clip-rule="evenodd" d="M452.69 286.358C452.305 290.508 445.003 292.829 440.791 292.829L276.522 293.183C275.386 293.182 274.264 292.941 273.228 292.476C272.192 292.011 271.266 291.332 270.51 290.485C269.754 289.638 269.185 288.641 268.841 287.558C268.497 286.476 268.385 285.334 268.513 284.206C269.942 263.207 269.051 279.209 273.324 193.846C273.619 191.804 274.623 189.93 276.16 188.552C277.697 187.175 279.67 186.383 281.733 186.314L445.311 186.683C446.43 186.683 447.538 186.916 448.562 187.367C449.587 187.818 450.507 188.477 451.263 189.302C452.019 190.128 452.595 191.102 452.954 192.162C453.314 193.222 453.449 194.345 453.351 195.46C453.259 288.848 452.459 276.027 452.69 286.358Z" fill="url(#paint26_linear_233_255)"/>
<path fill-rule="evenodd" clip-rule="evenodd" d="M453.827 285.466C453.643 287.472 452.717 289.338 451.23 290.697C449.743 292.056 447.802 292.811 445.787 292.814H281.302C280.166 292.815 279.043 292.576 278.005 292.112C276.968 291.647 276.041 290.969 275.285 290.121C274.528 289.273 273.96 288.275 273.617 287.192C273.273 286.109 273.163 284.965 273.293 283.837C274.723 262.838 273.831 278.841 278.105 193.477C278.324 191.507 279.263 189.687 280.74 188.365C282.218 187.043 284.131 186.313 286.114 186.314H450.092C451.211 186.314 452.318 186.547 453.343 186.998C454.368 187.449 455.287 188.108 456.043 188.933C456.8 189.759 457.376 190.733 457.735 191.793C458.095 192.853 458.23 193.976 458.132 195.092L453.827 285.466Z" fill="url(#paint27_linear_233_255)"/>
<path d="M354.122 310.646L349.51 292.83V278.702L359.21 310.723L354.122 310.646Z" fill="#11132D"/>
<path d="M345.175 304.559H330.202V310.723L345.175 310.646V304.559Z" fill="#11132D"/>
<g style="mix-blend-mode:soft-light" opacity="0.5">
<path fill-rule="evenodd" clip-rule="evenodd" d="M293.662 186.314L458.147 223.946V195.322C458.149 194.14 457.918 192.969 457.467 191.876C457.016 190.783 456.354 189.79 455.518 188.953C454.683 188.117 453.691 187.453 452.599 187C451.507 186.547 450.336 186.314 449.154 186.314H293.662Z" fill="#F1EFFF"/>
</g>
<path style="mix-blend-mode:multiply" opacity="0.2" fill-rule="evenodd" clip-rule="evenodd" d="M273.232 272.907L443.374 292.814L282.409 293.153C279.976 293.153 277.642 292.191 275.914 290.478C274.187 288.765 273.206 286.439 273.186 284.006L273.232 272.907Z" fill="url(#paint28_linear_233_255)"/>
<g style="mix-blend-mode:soft-light" opacity="0.5">
<path fill-rule="evenodd" clip-rule="evenodd" d="M272.187 216.567H276.937L275.984 235.783H271.218L272.187 216.567Z" fill="#E4E0FF"/>
</g>
<g style="mix-blend-mode:soft-light" opacity="0.5">
<path fill-rule="evenodd" clip-rule="evenodd" d="M272.632 207.543L277.521 205.13L277.859 198.304L272.924 201.748L272.632 207.543Z" fill="#E4E0FF"/>
</g>
<path d="M485.126 504L489.983 375.425H437.84V502.909L485.126 504Z" fill="url(#paint29_linear_233_255)"/>
<path fill-rule="evenodd" clip-rule="evenodd" d="M437.84 375.425H425.896L414.059 392.658L417.01 502.909H437.84V375.425Z" fill="#11132D"/>
<path fill-rule="evenodd" clip-rule="evenodd" d="M443.374 375.425V484.108H480.56L485.986 375.425L484.541 375.333L480.083 483.57L443.989 483.509L444.665 375.425H443.374Z" fill="#11132D"/>
<path d="M433.735 378.408H429.877V502.909H433.735V378.408Z" fill="url(#paint30_linear_233_255)"/>
<g style="mix-blend-mode:soft-light" opacity="0.5">
<path fill-rule="evenodd" clip-rule="evenodd" d="M429.877 378.408L417.21 393.611L419.024 502.909H429.877V378.408Z" fill="#CCA4A9"/>
</g>
<g style="mix-blend-mode:soft-light" opacity="0.3">
<path fill-rule="evenodd" clip-rule="evenodd" d="M437.84 410.536L487.939 429.721L489.983 375.425H437.84V410.536Z" fill="#CFC7FF"/>
</g>
<path fill-rule="evenodd" clip-rule="evenodd" d="M474.042 398.5L472.597 436.331H478.562L480.022 398.5H474.042Z" fill="#11132D"/>
<path fill-rule="evenodd" clip-rule="evenodd" d="M470.429 398.5H446.341V435.486L470.429 435.962V398.5Z" fill="#11132D"/>
<path fill-rule="evenodd" clip-rule="evenodd" d="M446.341 440.651V479.774H478.392V439.713L446.341 440.651Z" fill="#11132D"/>
<path fill-rule="evenodd" clip-rule="evenodd" d="M478.392 479.774L476.302 478.774H446.341V479.774H478.392Z" fill="#574055"/>
<path fill-rule="evenodd" clip-rule="evenodd" d="M470.429 435.962L468.523 434.763L446.341 434.333V435.486L470.429 435.962Z" fill="#574055"/>
<path fill-rule="evenodd" clip-rule="evenodd" d="M478.562 436.332L477.332 435.563L472.597 435.378V436.332H478.562Z" fill="#574055"/>
<path d="M451.69 447.307C451.69 447.569 451.613 447.824 451.468 448.042C451.322 448.259 451.116 448.429 450.874 448.529C450.633 448.629 450.367 448.655 450.111 448.604C449.854 448.553 449.618 448.427 449.434 448.242C449.249 448.057 449.123 447.822 449.072 447.565C449.021 447.309 449.047 447.043 449.147 446.801C449.247 446.56 449.417 446.353 449.634 446.208C449.851 446.063 450.107 445.985 450.368 445.985C450.543 445.983 450.715 446.016 450.877 446.082C451.038 446.147 451.185 446.245 451.308 446.368C451.431 446.491 451.528 446.638 451.594 446.799C451.66 446.96 451.692 447.133 451.69 447.307Z" fill="url(#paint31_linear_233_255)"/>
<path d="M451.69 453.103C451.687 453.364 451.607 453.618 451.46 453.833C451.313 454.048 451.106 454.215 450.864 454.313C450.622 454.411 450.357 454.435 450.101 454.382C449.846 454.329 449.612 454.202 449.428 454.017C449.245 453.831 449.121 453.596 449.071 453.34C449.021 453.084 449.048 452.819 449.149 452.578C449.249 452.337 449.419 452.132 449.636 451.987C449.853 451.843 450.108 451.765 450.368 451.765C450.543 451.765 450.717 451.8 450.878 451.867C451.039 451.935 451.186 452.034 451.309 452.158C451.432 452.282 451.529 452.43 451.594 452.592C451.66 452.754 451.693 452.928 451.69 453.103Z" fill="url(#paint32_linear_233_255)"/>
<path d="M451.69 458.406C451.69 458.668 451.613 458.923 451.468 459.141C451.322 459.358 451.116 459.527 450.874 459.627C450.633 459.727 450.367 459.754 450.111 459.703C449.854 459.652 449.618 459.526 449.434 459.341C449.249 459.156 449.123 458.92 449.072 458.664C449.021 458.407 449.047 458.142 449.147 457.9C449.247 457.659 449.417 457.452 449.634 457.307C449.851 457.162 450.107 457.084 450.368 457.084C450.719 457.084 451.055 457.223 451.303 457.471C451.551 457.719 451.69 458.055 451.69 458.406Z" fill="url(#paint33_linear_233_255)"/>
<path d="M453.028 404.203C453.031 404.468 452.955 404.728 452.81 404.95C452.665 405.172 452.457 405.346 452.213 405.449C451.969 405.553 451.7 405.582 451.439 405.532C451.179 405.482 450.939 405.356 450.75 405.169C450.562 404.983 450.433 404.745 450.38 404.485C450.327 404.225 450.353 403.955 450.454 403.71C450.554 403.465 450.726 403.255 450.946 403.107C451.166 402.96 451.425 402.881 451.691 402.881C452.043 402.881 452.38 403.02 452.631 403.267C452.881 403.515 453.024 403.851 453.028 404.203Z" fill="url(#paint34_linear_233_255)"/>
<path d="M453.028 415.901C453.031 416.166 452.955 416.426 452.81 416.648C452.665 416.87 452.457 417.044 452.213 417.148C451.969 417.251 451.7 417.28 451.439 417.23C451.179 417.18 450.939 417.054 450.75 416.868C450.562 416.681 450.433 416.443 450.38 416.183C450.327 415.923 450.353 415.654 450.454 415.408C450.554 415.163 450.726 414.953 450.946 414.806C451.166 414.658 451.425 414.579 451.691 414.579C451.865 414.577 452.039 414.61 452.201 414.675C452.363 414.741 452.511 414.838 452.635 414.961C452.76 415.084 452.858 415.23 452.926 415.392C452.993 415.553 453.028 415.726 453.028 415.901Z" fill="url(#paint35_linear_233_255)"/>
<path d="M378.748 504.984C357.703 504.984 329.218 503.847 317.827 502.479C311.817 501.741 310.618 501.095 310.218 500.526C310.117 500.376 310.063 500.2 310.063 500.019C310.063 499.838 310.117 499.662 310.218 499.512C312.139 496.345 368.326 496.437 403.421 497.975C405.235 479.236 406.496 407.277 407.157 366.371C407.449 348.939 407.679 335.18 407.879 330.015C408.198 317.535 406.373 305.092 402.483 293.229L403.759 292.768C407.702 304.795 409.553 317.409 409.232 330.061C409.047 335.211 408.817 348.969 408.525 366.386C407.295 438.114 406.25 483.109 404.682 498.021C413.797 498.42 421.391 498.928 426.065 499.558C428.38 499.918 430.747 499.752 432.99 499.073C435.234 498.395 437.295 497.221 439.024 495.638C450.322 485.338 449.784 458.744 449.784 458.529H451.153C451.153 459.651 451.783 485.969 440.023 496.699C438.153 498.417 435.921 499.691 433.491 500.429C431.061 501.166 428.497 501.346 425.988 500.957C420.884 500.342 413.382 499.835 404.62 499.42C404.598 500.847 404.268 502.252 403.652 503.539C402.299 504.539 391.999 504.984 378.748 504.984ZM311.832 500.019C319.349 502.878 398.932 505.107 402.652 502.386C402.996 501.394 403.203 500.36 403.267 499.312C369.448 497.79 318.104 497.944 311.832 500.019Z" fill="#11132D"/>
<path d="M380.701 475.254C351.37 475.254 328.004 466.938 316.874 452.196C294.307 422.266 298.904 315.227 299.119 310.615H300.487C300.487 311.722 295.706 421.774 317.966 451.304C330.371 467.753 358.503 475.992 393.291 473.333C420.746 471.227 444.512 462.572 449.815 452.718L451.014 453.364C445.511 463.587 421.284 472.564 393.398 474.686C389.032 475.101 384.82 475.254 380.701 475.254Z" fill="#11132D"/>
<path d="M426.679 497.621C425.297 497.562 423.98 497.017 422.959 496.084C399.762 477.191 412.199 317.333 412.783 310.539L414.136 310.646C414.028 312.352 401.177 476.638 423.836 495.085C424.38 495.624 425.068 495.996 425.817 496.156C426.566 496.317 427.345 496.26 428.063 495.992C441.452 490.627 450.922 416.578 451.014 415.824L452.367 416.009C451.983 419.083 442.698 491.595 428.57 497.252C427.971 497.499 427.328 497.625 426.679 497.621Z" fill="#11132D"/>
<path fill-rule="evenodd" clip-rule="evenodd" d="M349.51 278.702H389.371L395.366 310.646L359.21 310.723L349.51 278.702Z" fill="url(#paint36_linear_233_255)"/>
<path fill-rule="evenodd" clip-rule="evenodd" d="M400.193 310.646V306.726L345.175 304.559V310.646H400.193Z" fill="url(#paint37_linear_233_255)"/>
<path fill-rule="evenodd" clip-rule="evenodd" d="M546.954 310.616C546.954 310.616 549.029 299.855 548.122 295.704L453.274 296.688V298.072H457.194L457.747 309.171L453.658 309.601V310.616H546.954Z" fill="#00649F"/>
<path fill-rule="evenodd" clip-rule="evenodd" d="M457.194 298.041L494.918 297.534V309.232L457.732 309.125L457.194 298.041Z" fill="url(#paint38_linear_233_255)"/>
<g style="mix-blend-mode:soft-light">
<path fill-rule="evenodd" clip-rule="evenodd" d="M497.654 296.15C497.654 296.15 499.284 307.126 497.654 310.324L546.846 310.569C546.846 310.569 549.475 301.715 548.091 295.658L497.654 296.15Z" fill="#FFFEBD"/>
</g>
</g>
<g clip-path="url(#clip1_233_255)">
<path d="M136.32 329.66C136.32 329.66 186.32 339.66 193.32 355.08C200.32 370.5 176.04 371.32 152.19 361.71" fill="#FFD757"/>
<g style="mix-blend-mode:multiply">
<path d="M178.26 346.23C187.52 348.07 193.64 356.52 191.94 365.12C186.46 369.4 172.86 368.72 158.37 363.98C158.025 362.163 158.025 360.297 158.37 358.48C160.11 349.88 169 344.4 178.26 346.23Z" fill="#FFE4C7"/>
</g>
<path d="M194.172 363.589C195.878 354.986 189.757 346.524 180.498 344.687C171.24 342.851 162.352 348.336 160.645 356.938C158.939 365.541 165.061 374.004 174.319 375.84C183.577 377.677 192.466 372.192 194.172 363.589Z" fill="#FFD757"/>
<g style="mix-blend-mode:multiply">
<path d="M188.797 362.531C189.954 356.696 185.798 350.956 179.514 349.71C173.23 348.463 167.198 352.182 166.04 358.017C164.883 363.851 169.039 369.591 175.323 370.838C181.607 372.084 187.64 368.365 188.797 362.531Z" fill="#FFE4C7"/>
</g>
<g style="mix-blend-mode:multiply">
<path d="M188.797 362.531C189.954 356.696 185.798 350.956 179.514 349.71C173.23 348.463 167.198 352.182 166.04 358.017C164.883 363.851 169.039 369.591 175.323 370.838C181.607 372.084 187.64 368.365 188.797 362.531Z" fill="#FFE4C7"/>
</g>
<g style="mix-blend-mode:multiply">
<path d="M188.797 362.531C189.954 356.696 185.798 350.956 179.514 349.71C173.23 348.463 167.198 352.182 166.04 358.017C164.883 363.851 169.039 369.591 175.323 370.838C181.607 372.084 187.64 368.365 188.797 362.531Z" fill="#FFE4C7"/>
</g>
<path d="M175.87 370.28C175.87 370.28 167.12 368.34 165.41 361.83C163.7 355.32 171.3 352.83 171.3 352.83C171.3 352.83 165.25 334.31 169.9 334.15C174.55 333.99 176.72 352.21 176.72 352.21C176.72 352.21 181.91 336.79 185.01 337.8C188.11 338.81 180.6 354.46 180.6 354.46C180.6 354.46 186.98 353.22 185.76 359.46C185.76 359.46 191.6 359.3 189.82 363.88C188.04 368.46 181.68 374.7 175.87 370.28Z" fill="#FFCAA6"/>
<path d="M176.83 367.3C176.773 367.3 176.716 367.288 176.663 367.266C176.61 367.244 176.562 367.211 176.522 367.17C176.482 367.129 176.451 367.081 176.43 367.028C176.409 366.974 176.399 366.917 176.4 366.86C176.46 364.08 174.4 361.36 174.34 361.33C174.304 361.286 174.278 361.236 174.262 361.182C174.246 361.128 174.241 361.071 174.248 361.015C174.254 360.959 174.272 360.905 174.3 360.856C174.328 360.807 174.365 360.764 174.41 360.73C174.49 360.652 174.598 360.608 174.71 360.608C174.822 360.608 174.93 360.652 175.01 360.73C175.428 361.312 175.994 361.772 176.651 362.06C177.307 362.349 178.028 362.456 178.74 362.37C179.125 362.316 179.489 362.163 179.798 361.927C180.106 361.69 180.348 361.378 180.5 361.02C180.594 360.703 180.599 360.367 180.514 360.048C180.429 359.728 180.258 359.439 180.02 359.21C177.76 356.63 172.72 356.79 172.67 356.79C172.612 356.794 172.554 356.786 172.5 356.767C172.446 356.748 172.396 356.717 172.353 356.678C172.311 356.639 172.278 356.591 172.255 356.538C172.232 356.485 172.22 356.428 172.22 356.37C172.217 356.255 172.26 356.143 172.338 356.059C172.417 355.975 172.525 355.925 172.64 355.92C172.86 355.92 178.14 355.74 180.64 358.63C180.979 358.975 181.218 359.405 181.331 359.876C181.444 360.346 181.426 360.839 181.28 361.3C181.081 361.805 180.753 362.25 180.328 362.589C179.903 362.927 179.397 363.148 178.86 363.23C177.975 363.384 177.064 363.251 176.26 362.85C176.898 364.088 177.241 365.457 177.26 366.85C177.263 366.908 177.254 366.966 177.233 367.021C177.213 367.075 177.182 367.125 177.141 367.167C177.101 367.209 177.053 367.243 176.999 367.265C176.946 367.288 176.888 367.3 176.83 367.3Z" fill="#EF7348"/>
<path d="M92.17 327.12C92.17 327.12 42.17 337.12 35.17 352.54C28.17 367.96 52.45 368.78 76.29 359.18" fill="#FFD757"/>
<g style="mix-blend-mode:multiply">
<path d="M92.17 327.12C92.17 327.12 42.17 337.12 35.17 352.54C28.17 367.96 52.45 368.78 76.29 359.18" fill="#FFE4C7"/>
</g>
<path d="M93.59 192.4C93.59 192.4 81.19 186.65 75.53 200.7C75.53 200.7 68.87 195.63 67.53 198.04C66.19 200.45 71.64 204.04 71.64 204.04C71.64 204.04 51.8201 205.33 50.2601 213.93C48.7001 222.53 57.04 230.2 57.04 230.2C57.04 230.2 40.6601 231.96 40.3201 239.93C39.9801 247.9 52.52 251.63 52.52 251.63C52.52 251.63 39.7701 252.03 40.8201 254.63C41.8701 257.23 50.53 256.63 50.53 256.63C50.53 256.63 40.68 263.43 51.14 273.89C51.14 273.89 38.46 292.72 67.02 301.89L161.79 297.55C161.79 297.55 170.59 300.77 174.42 286.32C174.42 286.32 186.42 275.49 174.89 264.52C174.89 264.52 192.24 244.52 175.76 234.58C175.76 234.58 177.89 210.06 157.96 210.04C157.96 210.04 166.09 204.91 163.13 200.3C160.17 195.69 154.13 208.67 154.13 208.67C154.13 208.67 152.35 185.35 135.31 194.5C135.31 194.5 127.97 179.73 115.1 188.73C115.1 188.73 114.17 177.56 112.04 177.93C109.91 178.3 112.51 191.18 112.51 191.18C112.51 191.18 107.87 181.76 106.09 181.97C104.31 182.18 108.51 189.03 108.51 189.03C108.51 189.03 96.48 185.91 93.59 192.4Z" fill="#A52F20"/>
<path d="M175.8 234.66C175.8 234.66 176.67 224.51 171.99 217.27C171.6 227.05 162.99 223.82 162.99 223.82C162.99 223.82 161.14 235.4 153.72 235.4C149.046 235.308 144.512 233.794 140.72 231.06C140.72 231.06 138.55 240.06 131.05 240.98C123.55 241.9 116.33 236.8 116.33 236.8C116.33 236.8 112.67 244.86 103.67 245.01C94.67 245.16 91.43 239.95 91.43 239.95C91.43 239.95 83.48 253.73 74.48 246.65C65.48 239.57 77.58 228.65 77.58 228.65C77.58 228.65 69.21 229.58 68.58 227.26C67.95 224.94 74.3201 224.47 74.3201 224.47C58.2001 212.37 77.42 206.47 77.42 206.47C78.66 188.03 93.58 192.47 93.58 192.47C93.58 192.47 81.18 186.72 75.52 200.77C75.52 200.77 68.86 195.7 67.52 198.11C66.18 200.52 71.6301 204.11 71.6301 204.11C71.6301 204.11 51.81 205.4 50.25 214C48.69 222.6 57.03 230.27 57.03 230.27C57.03 230.27 40.65 232.03 40.31 240C39.97 247.97 52.5101 251.7 52.5101 251.7C52.5101 251.7 39.76 252.1 40.81 254.7C41.86 257.3 50.52 256.7 50.52 256.7C50.52 256.7 40.6701 263.5 51.1301 273.96C51.1301 273.96 38.4501 292.79 67.0101 301.96L161.78 297.62C161.78 297.62 170.58 300.84 174.41 286.39C174.41 286.39 186.41 275.56 174.88 264.59C174.93 264.6 192.28 244.59 175.8 234.66Z" fill="#99251C"/>
<path d="M105.37 447.58C105.37 447.58 96.91 481.25 79.01 499.02L68.48 496.79C68.48 496.79 74.06 457.96 72.68 441.85" fill="#FFCAA6"/>
<path d="M79.01 499.02C83.1937 502.386 86.4696 506.745 88.54 511.7L65.38 506.8L68.46 496.8L79.01 499.02Z" fill="#FFD757"/>
<path d="M75.48 503.61C75.3765 503.608 75.277 503.569 75.2 503.5C75.1141 503.425 75.0609 503.319 75.0516 503.205C75.0422 503.091 75.0775 502.978 75.15 502.89C76.6501 501.372 78.4715 500.211 80.48 499.49C80.5332 499.471 80.5896 499.463 80.646 499.465C80.7025 499.468 80.7578 499.482 80.8089 499.506C80.86 499.53 80.9058 499.564 80.9438 499.606C80.9817 499.648 81.011 499.697 81.03 499.75C81.0506 499.804 81.0602 499.861 81.0583 499.919C81.0563 499.976 81.0428 500.033 81.0185 500.085C80.9943 500.137 80.9598 500.184 80.9171 500.223C80.8744 500.261 80.8244 500.291 80.77 500.31C78.9128 500.987 77.2242 502.058 75.82 503.45C75.7778 503.499 75.7257 503.539 75.6671 503.566C75.6085 503.594 75.5448 503.609 75.48 503.61Z" fill="#C12E11"/>
<path d="M79.8201 505.52C79.7604 505.529 79.6996 505.529 79.64 505.52C79.5872 505.495 79.5399 505.46 79.5007 505.417C79.4615 505.374 79.4313 505.324 79.4117 505.269C79.3922 505.214 79.3838 505.156 79.3869 505.098C79.39 505.039 79.4047 504.982 79.4301 504.93C80.0772 503.584 80.9196 502.34 81.9301 501.24C81.97 501.2 82.0175 501.168 82.0699 501.146C82.1222 501.124 82.1784 501.113 82.235 501.113C82.2917 501.113 82.3479 501.124 82.4002 501.146C82.4526 501.168 82.5001 501.2 82.54 501.24C82.6219 501.322 82.6678 501.434 82.6678 501.55C82.6678 501.666 82.6219 501.778 82.54 501.86C81.5914 502.89 80.8026 504.056 80.2 505.32C80.159 505.383 80.1026 505.434 80.0361 505.469C79.9695 505.504 79.8952 505.522 79.8201 505.52Z" fill="#C12E11"/>
<path d="M88.54 512.14H88.48L65.3201 507.24C65.2599 507.235 65.2015 507.218 65.1486 507.189C65.0956 507.16 65.0494 507.12 65.0129 507.072C64.9763 507.024 64.9503 506.969 64.9365 506.91C64.9226 506.851 64.9213 506.79 64.9326 506.731C64.9439 506.672 64.9676 506.615 65.002 506.566C65.0365 506.516 65.0809 506.475 65.1326 506.443C65.1842 506.412 65.2418 506.392 65.3017 506.385C65.3616 506.377 65.4223 506.382 65.48 506.4L88.64 511.3C88.7541 511.312 88.8587 511.369 88.9309 511.458C89.0031 511.547 89.037 511.661 89.025 511.775C89.0131 511.889 88.9563 511.994 88.8672 512.066C88.7782 512.138 88.6641 512.172 88.55 512.16L88.54 512.14Z" fill="#C12E11"/>
<path d="M79.01 499.02L68.48 496.79C68.48 496.79 69.15 492.13 69.97 485.36C75.25 488.07 82.27 490.85 85.12 491.95C83.2578 494.452 81.2157 496.815 79.01 499.02Z" fill="white"/>
<path d="M69.68 496.51C69.42 497.75 70.53 499.03 72.17 499.37C73.81 499.71 75.33 499 75.59 497.76C75.85 496.52 74.74 495.25 73.11 494.9C71.48 494.55 69.95 495.28 69.68 496.51Z" fill="white"/>
<path d="M150.23 445.48C150.23 445.48 148.92 480.17 135.09 501.27H124.3C124.3 501.27 121.72 462.12 117.04 446.65" fill="#FFCAA6"/>
<path d="M153.48 407.74C153.48 407.74 154.48 426.38 151.69 453.81C151.69 453.81 136.41 460.81 115.97 456.03L113.39 436.34L108 437.74C108 437.74 108 443.74 105.86 455.99C93.8476 457.773 81.6155 457.434 69.72 454.99C69.72 454.99 72.78 426.43 73.51 408.5" fill="#66A8CC"/>
<path d="M107.97 438.18C107.867 438.173 107.77 438.131 107.695 438.06C107.621 437.989 107.573 437.894 107.561 437.792C107.549 437.689 107.574 437.586 107.63 437.5C107.687 437.414 107.771 437.35 107.87 437.32C111.571 436.448 115.186 435.243 118.67 433.72C118.723 433.686 118.782 433.664 118.844 433.655C118.906 433.646 118.969 433.65 119.03 433.668C119.09 433.685 119.146 433.715 119.193 433.756C119.241 433.797 119.279 433.847 119.306 433.904C119.332 433.961 119.347 434.022 119.347 434.085C119.348 434.148 119.336 434.21 119.31 434.267C119.285 434.325 119.248 434.376 119.201 434.418C119.155 434.46 119.1 434.491 119.04 434.51C115.491 436.06 111.81 437.285 108.04 438.17L107.97 438.18Z" fill="#25739E"/>
<path d="M111.38 433.16C111.271 433.169 111.162 433.135 111.077 433.067C110.991 432.998 110.935 432.9 110.92 432.791C110.905 432.683 110.931 432.573 110.994 432.483C111.058 432.394 111.153 432.332 111.26 432.31C114.08 431.49 117.33 430.31 117.68 429.95C117.82 429.31 117.68 419.54 117.62 413.55C117.62 413.435 117.665 413.325 117.745 413.242C117.826 413.16 117.935 413.113 118.05 413.11C118.165 413.107 118.277 413.15 118.361 413.228C118.445 413.307 118.495 413.415 118.5 413.53C118.56 417.29 118.74 429.53 118.5 430.31C118.26 431.09 115.93 431.87 111.5 433.14C111.462 433.156 111.421 433.163 111.38 433.16Z" fill="#25739E"/>
<path d="M154.71 424C154.637 423.998 154.566 423.981 154.5 423.95C154.31 423.84 149.62 421.32 149.8 416.04C149.808 415.926 149.858 415.819 149.942 415.741C150.026 415.663 150.136 415.62 150.25 415.62C150.365 415.625 150.473 415.675 150.552 415.759C150.63 415.843 150.673 415.955 150.67 416.07C150.51 420.8 154.87 423.15 154.91 423.18C154.961 423.206 155.007 423.242 155.043 423.287C155.08 423.331 155.108 423.382 155.125 423.437C155.141 423.492 155.147 423.55 155.141 423.607C155.135 423.664 155.118 423.72 155.09 423.77C155.053 423.838 154.998 423.896 154.931 423.936C154.864 423.977 154.788 423.999 154.71 424Z" fill="#25739E"/>
<path d="M128.06 454.18C123.852 454.174 119.648 453.879 115.48 453.3C115.42 453.295 115.362 453.279 115.308 453.251C115.255 453.223 115.208 453.185 115.17 453.138C115.132 453.091 115.105 453.037 115.089 452.979C115.072 452.921 115.068 452.861 115.077 452.801C115.085 452.741 115.105 452.684 115.136 452.633C115.168 452.581 115.209 452.537 115.258 452.502C115.307 452.467 115.363 452.443 115.421 452.431C115.48 452.418 115.541 452.418 115.6 452.43C138.6 455.6 151.87 449.2 152 449.14C152.052 449.114 152.108 449.099 152.166 449.095C152.224 449.091 152.282 449.099 152.336 449.117C152.391 449.136 152.442 449.165 152.485 449.203C152.529 449.242 152.564 449.288 152.59 449.34C152.639 449.444 152.645 449.562 152.608 449.671C152.57 449.779 152.492 449.868 152.39 449.92C152.27 449.98 143.48 454.18 128.06 454.18Z" fill="#25739E"/>
<g style="mix-blend-mode:multiply">
<path d="M153.61 413.7C150.16 414.75 137.61 418 114.76 417.93C90.95 417.86 76.34 414.5 73.03 413.65C73.2 412.73 73.34 411.81 73.43 410.9L153.43 407.74C153.43 407.74 153.56 409.85 153.61 413.7Z" fill="#FCE6CA"/>
</g>
<path d="M120.13 325.33C120.13 325.33 141.88 328.03 147.33 336.06C152.78 344.09 155.26 390.41 154.61 411.5C154.61 411.5 142.02 416.14 114.76 416.05C87.5 415.96 72.3 411.58 72.3 411.58C72.3 411.58 72.37 345.92 78.75 335.81C85.13 325.7 105.39 323.49 120.13 325.33Z" fill="#FFD757"/>
<path d="M129.56 317.64V330.26C129.56 330.26 130.44 338.48 120.32 339.53C110.2 340.58 103.01 332.22 102.32 327.88C101.823 323.611 101.576 319.317 101.58 315.02" fill="#FFCAA6"/>
<path d="M101.54 315.02L129.54 317.64V329.64H128.68C119.037 329.619 109.625 326.684 101.68 321.22C101.55 317.94 101.54 315.02 101.54 315.02Z" fill="#FDA284"/>
<path d="M63.33 281.4C64.6856 280.289 66.2637 279.483 67.9578 279.034C69.6519 278.585 71.4225 278.506 73.15 278.8C72.8087 276.703 72.5751 274.59 72.45 272.47C70.61 241.32 92.12 214.72 120.45 213.05C148.78 211.38 167.21 235.69 170.93 266.67C174.62 297.45 163.93 323.67 127.09 325.84C110.15 326.84 94.6 318.72 84.43 305.38C84.29 305.51 84.1601 305.66 84.0101 305.78C78.3901 310.56 69.19 308.98 63.47 302.24C57.75 295.5 57.71 286.21 63.33 281.4Z" fill="#FFCAA6"/>
<path d="M149.09 281.09H148.64C148.485 281.077 148.342 281.004 148.241 280.886C148.139 280.768 148.089 280.615 148.1 280.46C148.12 280.309 148.195 280.171 148.312 280.073C148.429 279.975 148.578 279.924 148.73 279.93C149.588 279.995 150.445 279.791 151.181 279.347C151.918 278.902 152.497 278.239 152.84 277.45C153.114 276.938 153.214 276.352 153.125 275.778C153.037 275.205 152.765 274.676 152.35 274.27C151.41 273.43 150.7 273.83 149.29 274.96C148.35 275.72 147.29 276.58 146.09 276.07C143.89 275.13 144.41 266.61 144.63 264.07C144.643 263.918 144.715 263.777 144.831 263.678C144.947 263.578 145.098 263.529 145.25 263.54C145.404 263.555 145.546 263.629 145.646 263.747C145.747 263.864 145.798 264.016 145.79 264.17C145.38 269.09 145.59 274.64 146.55 275.06C147.05 275.27 147.67 274.82 148.55 274.06C149.73 273.12 151.34 271.82 153.11 273.42C153.706 273.987 154.104 274.731 154.244 275.541C154.385 276.352 154.26 277.186 153.89 277.92C153.48 278.854 152.809 279.651 151.957 280.213C151.106 280.775 150.11 281.08 149.09 281.09Z" fill="#EF7348"/>
<path d="M156.48 268.23C156.63 270.89 158.11 272.98 159.76 272.88C161.41 272.78 162.64 270.54 162.48 267.88C162.32 265.22 160.85 263.13 159.2 263.23C157.55 263.33 156.32 265.56 156.48 268.23Z" fill="#030005"/>
<path d="M124.77 271.24C124.93 274.01 126.46 276.16 128.17 276.06C129.88 275.96 131.17 273.64 130.99 270.88C130.81 268.12 129.3 265.96 127.59 266.06C125.88 266.16 124.61 268.48 124.77 271.24Z" fill="#030005"/>
<path d="M161.19 259.05C161.108 259.049 161.028 259.027 160.957 258.984C160.887 258.942 160.829 258.882 160.79 258.81C160.58 258.37 159.84 257.18 158.97 257C158.752 256.967 158.529 256.986 158.32 257.058C158.111 257.129 157.922 257.25 157.77 257.41C157.681 257.482 157.567 257.516 157.453 257.505C157.339 257.494 157.233 257.439 157.159 257.352C157.085 257.265 157.048 257.152 157.055 257.038C157.063 256.924 157.115 256.817 157.2 256.74C157.455 256.494 157.765 256.312 158.104 256.209C158.443 256.107 158.801 256.086 159.15 256.15C160.62 256.46 161.54 258.35 161.58 258.43C161.629 258.534 161.635 258.652 161.598 258.761C161.56 258.869 161.482 258.958 161.38 259.01C161.32 259.037 161.255 259.05 161.19 259.05Z" fill="#EF7348"/>
<path d="M122.1 262.57H121.97C121.915 262.553 121.864 262.525 121.82 262.488C121.776 262.451 121.74 262.406 121.714 262.354C121.688 262.303 121.672 262.247 121.668 262.19C121.664 262.132 121.671 262.074 121.69 262.02C122.44 259.71 123.48 258.38 124.8 258.02C125.343 257.94 125.898 257.989 126.419 258.163C126.94 258.337 127.413 258.63 127.8 259.02C127.847 259.059 127.885 259.108 127.911 259.162C127.938 259.217 127.953 259.277 127.956 259.338C127.959 259.399 127.949 259.459 127.926 259.516C127.904 259.573 127.871 259.625 127.828 259.668C127.784 259.711 127.733 259.744 127.676 259.766C127.619 259.789 127.559 259.799 127.498 259.796C127.437 259.793 127.377 259.778 127.322 259.751C127.268 259.725 127.219 259.687 127.18 259.64C126.897 259.358 126.554 259.144 126.176 259.012C125.799 258.881 125.397 258.835 125 258.88C124 259.11 123.17 260.28 122.53 262.25C122.501 262.342 122.444 262.422 122.366 262.479C122.289 262.537 122.196 262.568 122.1 262.57Z" fill="#EF7348"/>
<path d="M80.17 295.04C80.0868 295.039 80.0047 295.021 79.929 294.986C79.8532 294.952 79.7855 294.902 79.73 294.84C79.54 294.62 74.85 289.49 66.04 292.59C65.9678 292.616 65.8912 292.627 65.8147 292.623C65.7381 292.619 65.6631 292.6 65.594 292.567C65.5248 292.534 65.4628 292.488 65.4115 292.431C65.3602 292.374 65.3206 292.307 65.295 292.235C65.2694 292.163 65.2582 292.086 65.2622 292.01C65.2662 291.933 65.2852 291.858 65.3182 291.789C65.3512 291.72 65.3974 291.658 65.4544 291.607C65.5113 291.555 65.5778 291.516 65.65 291.49C75.23 288.12 80.55 294.01 80.65 294.07C80.7001 294.128 80.7383 294.195 80.7624 294.267C80.7864 294.34 80.796 294.416 80.7904 294.493C80.7849 294.569 80.7643 294.643 80.7299 294.711C80.6955 294.78 80.6479 294.84 80.59 294.89C80.5337 294.942 80.4675 294.982 80.3953 295.008C80.3231 295.034 80.2465 295.045 80.17 295.04Z" fill="#EF7348"/>
<path d="M78.12 300.66C78.0181 300.658 77.9183 300.631 77.83 300.58C76.1646 299.751 74.8708 298.327 74.2043 296.591C73.5377 294.854 73.5469 292.93 74.23 291.2C74.2594 291.128 74.3029 291.063 74.3579 291.008C74.413 290.954 74.4784 290.911 74.5503 290.882C74.6223 290.853 74.6993 290.839 74.7769 290.84C74.8544 290.841 74.9309 290.858 75.0018 290.89C75.0727 290.921 75.1366 290.966 75.1897 291.023C75.2427 291.08 75.284 291.146 75.3108 291.219C75.3377 291.292 75.3497 291.369 75.3461 291.447C75.3425 291.524 75.3235 291.6 75.29 291.67C75.21 291.87 73.29 296.57 78.42 299.58C78.4856 299.618 78.543 299.669 78.5887 299.73C78.6344 299.79 78.6676 299.859 78.6862 299.933C78.7048 300.007 78.7085 300.083 78.6972 300.158C78.6858 300.233 78.6596 300.305 78.62 300.37C78.5709 300.459 78.4984 300.533 78.4103 300.585C78.3222 300.636 78.2219 300.662 78.12 300.66Z" fill="#EF7348"/>
<path d="M171.35 270.61C171.999 277.582 171.662 284.611 170.35 291.49C167.66 289.75 165.7 286.16 165.45 281.92C165.12 276.53 167.67 271.87 171.35 270.61Z" fill="#FDA284"/>
<path d="M112.39 298.685C117.846 295.796 119.928 289.03 117.039 283.573C114.149 278.116 107.384 276.035 101.927 278.924C96.4698 281.813 94.3883 288.579 97.2776 294.036C100.167 299.493 106.933 301.574 112.39 298.685Z" fill="#FDA284"/>
<path d="M125.88 269.12C125.71 269.85 125.94 270.53 126.39 270.63C126.84 270.73 127.39 270.23 127.51 269.5C127.63 268.77 127.45 268.08 127 267.98C126.55 267.88 126.05 268.4 125.88 269.12Z" fill="white"/>
<path d="M157.64 265.8C157.48 266.45 157.69 267.06 158.08 267.15C158.47 267.24 158.93 266.79 159.08 266.15C159.23 265.51 159.03 264.9 158.63 264.8C158.23 264.7 157.79 265.15 157.64 265.8Z" fill="white"/>
<path d="M142.69 284.4C143.362 284.896 144.144 285.222 144.97 285.349C145.796 285.476 146.64 285.401 147.43 285.13C149.25 284.49 151.57 284.23 152.71 286.33C154.4 289.44 150.63 296.9 142.53 295.97C134.43 295.04 131.96 286.46 135.35 283.72C137.89 281.7 140.77 283.02 142.69 284.4Z" fill="white"/>
<path d="M152.59 286.8C151.45 284.7 149.13 284.97 147.31 285.61C146.52 285.881 145.676 285.956 144.85 285.829C144.024 285.702 143.242 285.376 142.57 284.88C140.65 283.46 137.77 282.15 135.23 284.2C134.652 284.687 134.231 285.334 134.02 286.06C134.186 285.161 134.656 284.345 135.35 283.75C137.89 281.7 140.77 283.02 142.69 284.43C143.362 284.926 144.144 285.252 144.97 285.379C145.796 285.506 146.64 285.431 147.43 285.16C149.25 284.52 151.57 284.26 152.71 286.36C153.18 287.418 153.23 288.616 152.85 289.71C153.1 288.739 153.008 287.711 152.59 286.8Z" fill="#FDA284"/>
<g style="mix-blend-mode:multiply">
<path d="M78.75 335.81C81.09 332.11 85.29 329.47 90.39 327.7C84.7004 336.362 81.6852 346.507 81.72 356.87C81.72 385.09 103.39 407.97 130.13 407.97C138.819 407.969 147.331 405.519 154.69 400.9C154.69 404.83 154.69 408.43 154.61 411.5C154.61 411.5 142.02 416.14 114.76 416.05C87.5 415.96 72.3 411.58 72.3 411.58C72.3 411.58 72.37 345.92 78.75 335.81Z" fill="#FFE4C7"/>
</g>
<path d="M119.25 343.34C116.02 343.301 112.842 342.52 109.96 341.06C109.93 341.047 109.902 341.028 109.88 341.004C109.857 340.98 109.84 340.952 109.828 340.921C109.817 340.89 109.812 340.857 109.814 340.824C109.816 340.791 109.825 340.759 109.84 340.73C109.87 340.672 109.921 340.629 109.983 340.608C110.044 340.588 110.112 340.592 110.17 340.62C120.45 345.62 127.34 340.69 127.41 340.62C127.463 340.593 127.524 340.586 127.582 340.599C127.64 340.613 127.691 340.647 127.726 340.696C127.761 340.744 127.778 340.803 127.773 340.863C127.768 340.922 127.742 340.978 127.7 341.02C125.167 342.595 122.232 343.401 119.25 343.34Z" fill="white"/>
<path d="M135.09 501.27C139.88 503.697 143.988 507.282 147.04 511.7H123.37L124.3 501.27H135.09Z" fill="#FFD757"/>
<path d="M132.48 506.5C132.407 506.498 132.336 506.481 132.27 506.45C132.169 506.395 132.093 506.302 132.059 506.192C132.026 506.081 132.037 505.962 132.09 505.86C133.246 504.067 134.786 502.553 136.6 501.43C136.697 501.387 136.806 501.381 136.907 501.412C137.009 501.443 137.095 501.51 137.151 501.6C137.207 501.69 137.229 501.798 137.212 501.902C137.195 502.007 137.141 502.102 137.06 502.17C135.382 503.219 133.95 504.618 132.86 506.27C132.824 506.339 132.769 506.397 132.702 506.438C132.635 506.478 132.558 506.5 132.48 506.5Z" fill="#C12E11"/>
<path d="M137.14 507.47H137.04C136.984 507.458 136.931 507.435 136.883 507.403C136.836 507.37 136.796 507.328 136.765 507.28C136.735 507.231 136.714 507.177 136.704 507.12C136.695 507.064 136.697 507.006 136.71 506.95C137.065 505.499 137.631 504.107 138.39 502.82C138.415 502.762 138.453 502.711 138.5 502.669C138.547 502.627 138.603 502.596 138.663 502.577C138.723 502.559 138.786 502.553 138.849 502.561C138.911 502.569 138.971 502.591 139.025 502.624C139.078 502.657 139.124 502.702 139.159 502.754C139.194 502.806 139.217 502.866 139.227 502.928C139.237 502.99 139.233 503.054 139.217 503.115C139.2 503.175 139.17 503.232 139.13 503.28C138.428 504.49 137.899 505.793 137.56 507.15C137.534 507.242 137.479 507.322 137.403 507.38C137.328 507.438 137.235 507.469 137.14 507.47Z" fill="#C12E11"/>
<path d="M147.04 512.14H123.37C123.307 512.149 123.243 512.145 123.182 512.128C123.122 512.11 123.065 512.08 123.017 512.039C122.969 511.997 122.93 511.946 122.904 511.888C122.878 511.831 122.864 511.768 122.864 511.705C122.864 511.642 122.878 511.579 122.904 511.521C122.93 511.464 122.969 511.413 123.017 511.371C123.065 511.33 123.122 511.299 123.182 511.282C123.243 511.264 123.307 511.26 123.37 511.27H147.04C147.103 511.26 147.167 511.264 147.228 511.282C147.288 511.299 147.345 511.33 147.393 511.371C147.441 511.413 147.48 511.464 147.506 511.521C147.532 511.579 147.546 511.642 147.546 511.705C147.546 511.768 147.532 511.831 147.506 511.888C147.48 511.946 147.441 511.997 147.393 512.039C147.345 512.08 147.288 512.11 147.228 512.128C147.167 512.145 147.103 512.149 147.04 512.14Z" fill="#C12E11"/>
<path d="M135.09 501.27H124.3C124.3 501.27 123.99 496.57 123.39 489.78C129.12 491.34 136.57 492.61 139.58 493.09C138.283 495.922 136.783 498.656 135.09 501.27Z" fill="white"/>
<path d="M128.47 503.03C130.138 503.03 131.49 502.005 131.49 500.74C131.49 499.475 130.138 498.45 128.47 498.45C126.802 498.45 125.45 499.475 125.45 500.74C125.45 502.005 126.802 503.03 128.47 503.03Z" fill="white"/>
<path d="M78.84 427.94C78.2014 427.943 77.5633 427.903 76.93 427.82C76.8172 427.8 76.7167 427.737 76.6498 427.643C76.583 427.55 76.555 427.435 76.5719 427.322C76.5889 427.208 76.6494 427.106 76.7405 427.037C76.8317 426.967 76.9463 426.936 77.06 426.95C77.06 426.95 82.26 427.69 85.29 425.12C86.0233 424.448 86.5997 423.624 86.9783 422.704C87.3568 421.785 87.5281 420.793 87.48 419.8C87.4873 419.687 87.5363 419.58 87.6175 419.501C87.6988 419.421 87.8065 419.375 87.92 419.37C87.9778 419.371 88.0348 419.384 88.0877 419.407C88.1406 419.43 88.1883 419.464 88.2283 419.506C88.2682 419.548 88.2995 419.597 88.3204 419.651C88.3413 419.705 88.3513 419.762 88.35 419.82C88.3999 420.945 88.1987 422.067 87.7611 423.105C87.3236 424.143 86.6605 425.07 85.82 425.82C83.8023 427.3 81.3401 428.048 78.84 427.94Z" fill="#25739E"/>
<path d="M96.24 453.21C78.24 453.21 70.15 450.54 70.06 450.51C69.95 450.471 69.8598 450.391 69.8092 450.286C69.7586 450.181 69.7517 450.06 69.79 449.95C69.808 449.896 69.8366 449.846 69.8741 449.803C69.9116 449.76 69.9574 449.725 70.0085 449.7C70.0597 449.675 70.1154 449.66 70.1723 449.657C70.2292 449.653 70.2862 449.661 70.34 449.68C70.45 449.68 81.45 453.33 106.34 452.07C106.454 452.069 106.564 452.111 106.649 452.186C106.734 452.262 106.788 452.367 106.8 452.48C106.803 452.538 106.794 452.595 106.774 452.65C106.755 452.704 106.724 452.754 106.685 452.797C106.646 452.84 106.599 452.874 106.547 452.899C106.495 452.923 106.438 452.937 106.38 452.94C102.74 453.13 99.34 453.21 96.24 453.21Z" fill="#25739E"/>
<path d="M70.29 278.71C70.29 278.71 74.94 277.98 78.12 281.05C81.3 284.12 88.74 281.67 85.18 267.16C85.18 267.16 98.51 263.96 97.89 250.79C97.89 250.79 112.46 255.28 118.97 244.59C118.97 244.59 135.09 249.7 140.83 240.09C140.83 240.09 152.92 245.67 163 239.55C163 239.55 151.84 206.76 115.41 211.55C78.98 216.34 66.25 253 70.29 278.71Z" fill="#A52F20"/>
<path d="M153.72 235.4C149.046 235.308 144.512 233.794 140.72 231.06C140.72 231.06 138.55 240.06 131.05 240.98C123.55 241.9 116.33 236.8 116.33 236.8C116.33 236.8 112.67 244.86 103.67 245.01C94.67 245.16 91.43 239.95 91.43 239.95C91.43 239.95 83.48 253.73 74.48 246.65C74.21 246.43 73.95 246.21 73.71 245.99C69.8609 256.441 68.6853 267.689 70.29 278.71C70.29 278.71 74.94 277.98 78.12 281.05C81.3 284.12 88.74 281.67 85.18 267.16C85.18 267.16 98.51 263.96 97.89 250.79C97.89 250.79 112.46 255.28 118.97 244.59C118.97 244.59 135.09 249.7 140.83 240.09C140.83 240.09 152.92 245.67 163 239.55C162.057 237.06 160.878 234.666 159.48 232.4C158.817 233.311 157.951 234.055 156.952 234.576C155.953 235.096 154.846 235.378 153.72 235.4Z" fill="#99251C"/>
<path d="M158 210.12C158 210.12 166.13 204.99 163.17 200.38C160.21 195.77 154.17 208.75 154.17 208.75C154.17 208.75 152.39 185.43 135.35 194.58C135.35 194.58 128.01 179.81 115.14 188.81C115.14 188.81 114.21 177.64 112.08 178.01C109.95 178.38 112.55 191.26 112.55 191.26C112.55 191.26 107.91 181.84 106.13 182.05C104.35 182.26 108.55 189.11 108.55 189.11C105.664 188.397 102.676 188.19 99.72 188.5C97.54 190.93 95.45 195.5 98.4 203.1C98.4 203.1 90.75 200.41 90.34 203.1C89.93 205.79 98.81 207.02 98.81 207.02C98.81 207.02 86.17 211.57 90.32 219.84C94.47 228.11 111 227.28 114.1 215.7C114.1 215.7 125.88 229.96 134.77 213.84C134.77 213.84 152.42 238.47 162.92 210.71C161.311 210.307 159.658 210.108 158 210.12Z" fill="#B2362D"/>
<path d="M152.62 223.51C145.26 216.01 133.43 209.19 115.41 211.57C106.648 212.625 98.325 215.998 91.3 221.34C96.58 227.95 111.22 226.52 114.11 215.7C114.11 215.7 125.89 229.96 134.78 213.84C134.78 213.84 143.69 226.28 152.62 223.51Z" fill="#B2362D"/>
<path d="M57.9 240.94C57.9 242.61 55.33 243.94 52.16 243.94C48.99 243.94 46.43 242.58 46.43 240.94C46.43 239.3 48.99 237.94 52.16 237.94C55.33 237.94 57.9 239.27 57.9 240.94Z" fill="#911D17"/>
<path d="M57.67 236.37C58.9127 236.37 59.92 235.743 59.92 234.97C59.92 234.197 58.9127 233.57 57.67 233.57C56.4274 233.57 55.42 234.197 55.42 234.97C55.42 235.743 56.4274 236.37 57.67 236.37Z" fill="#911D17"/>
<path d="M83.48 256.57C83.48 258.57 80.83 260.27 77.55 260.27C74.27 260.27 71.62 258.61 71.62 256.57C71.62 254.53 74.27 252.86 77.55 252.86C80.83 252.86 83.48 254.52 83.48 256.57Z" fill="#911D17"/>
<path d="M83.48 274.86C83.48 276.29 82.89 277.45 82.17 277.45C81.45 277.45 80.85 276.29 80.85 274.86C80.85 273.43 81.44 272.28 82.17 272.28C82.9 272.28 83.48 273.4 83.48 274.86Z" fill="#911D17"/>
<path d="M179.73 248.02C179.73 250.69 178.73 252.86 177.41 252.86C176.09 252.86 175.08 250.69 175.08 248.02C175.08 245.35 176.08 243.19 177.41 243.19C178.74 243.19 179.73 245.4 179.73 248.02Z" fill="#911D17"/>
<path d="M172.51 240.57C172.985 240.57 173.37 240.185 173.37 239.71C173.37 239.235 172.985 238.85 172.51 238.85C172.035 238.85 171.65 239.235 171.65 239.71C171.65 240.185 172.035 240.57 172.51 240.57Z" fill="#911D17"/>
<path d="M108.12 234.9C108.12 236.57 105.8 237.9 102.93 237.9C100.06 237.9 97.73 236.55 97.73 234.9C97.73 233.25 100.06 231.9 102.93 231.9C105.8 231.9 108.12 233.23 108.12 234.9Z" fill="#B2362D"/>
<path d="M95.25 229.4C95.25 229.91 94.53 230.33 93.63 230.33C92.73 230.33 92 229.91 92 229.4C92 228.89 92.73 228.47 93.63 228.47C94.53 228.47 95.25 228.88 95.25 229.4Z" fill="#B2362D"/>
<path d="M75.39 217.3C76.5774 217.3 77.54 216.337 77.54 215.15C77.54 213.963 76.5774 213 75.39 213C74.2026 213 73.24 213.963 73.24 215.15C73.24 216.337 74.2026 217.3 75.39 217.3Z" fill="#B2362D"/>
<path d="M87.83 200.49C87.83 200.721 87.7614 200.948 87.6329 201.14C87.5043 201.332 87.3216 201.482 87.1078 201.571C86.894 201.659 86.6587 201.683 86.4318 201.638C86.2048 201.592 85.9963 201.481 85.8327 201.317C85.6691 201.154 85.5576 200.945 85.5125 200.718C85.4674 200.491 85.4905 200.256 85.5791 200.042C85.6676 199.828 85.8176 199.646 86.01 199.517C86.2024 199.389 86.4286 199.32 86.66 199.32C86.9703 199.32 87.2679 199.443 87.4874 199.663C87.7068 199.882 87.83 200.18 87.83 200.49Z" fill="#B2362D"/>
<path d="M153.1 228.47C153.1 229.47 151.64 230.33 149.83 230.33C148.02 230.33 146.56 229.49 146.56 228.47C146.56 227.45 148.03 226.61 149.83 226.61C151.63 226.61 153.1 227.4 153.1 228.47Z" fill="#B2362D"/>
<path d="M127.88 191.5C127.88 192.82 126.09 193.9 123.88 193.9C121.67 193.9 119.88 192.82 119.88 191.5C119.88 190.18 121.67 189.09 123.88 189.09C126.09 189.09 127.88 190.17 127.88 191.5Z" fill="#C1403D"/>
<path d="M117.09 195.14C117.532 195.14 117.89 194.325 117.89 193.32C117.89 192.315 117.532 191.5 117.09 191.5C116.648 191.5 116.29 192.315 116.29 193.32C116.29 194.325 116.648 195.14 117.09 195.14Z" fill="#C1403D"/>
<path d="M146.56 197.45C146.56 197.755 146.469 198.053 146.3 198.307C146.13 198.56 145.889 198.757 145.607 198.874C145.325 198.99 145.015 199.02 144.716 198.96C144.417 198.899 144.142 198.752 143.928 198.535C143.713 198.319 143.567 198.044 143.508 197.744C143.45 197.445 143.482 197.135 143.6 196.854C143.718 196.572 143.917 196.333 144.172 196.165C144.426 195.997 144.725 195.908 145.03 195.91C145.437 195.913 145.826 196.076 146.113 196.365C146.399 196.653 146.56 197.043 146.56 197.45Z" fill="#C1403D"/>
<path d="M104.71 220.08C104.71 221.08 103.15 221.96 101.22 221.96C99.29 221.96 97.73 221.12 97.73 220.08C97.73 219.04 99.3 218.21 101.22 218.21C103.14 218.21 104.71 219.05 104.71 220.08Z" fill="#C1403D"/>
<path opacity="0.35" d="M137.13 265.7C137.767 269.959 136.995 274.31 134.93 278.09C133.957 279.957 132.561 281.57 130.855 282.803C129.148 284.035 127.178 284.853 125.1 285.19C117.1 286.29 109.59 279.34 108.26 269.67C106.93 260 112.31 251.27 120.26 250.18C128.21 249.09 135.79 256.03 137.13 265.7Z" fill="#FCF6F2"/>
<path opacity="0.35" d="M165.16 278.53C173.207 278.53 179.73 270.619 179.73 260.86C179.73 251.101 173.207 243.19 165.16 243.19C157.113 243.19 150.59 251.101 150.59 260.86C150.59 270.619 157.113 278.53 165.16 278.53Z" fill="#FCF6F2"/>
<path d="M123.48 285.88C119.875 285.823 116.427 284.392 113.84 281.88C110.512 278.621 108.363 274.348 107.729 269.734C107.096 265.119 108.014 260.425 110.34 256.39C111.378 254.587 112.807 253.04 114.522 251.864C116.237 250.687 118.195 249.91 120.25 249.59C128.52 248.45 136.38 255.59 137.75 265.59C138.412 269.993 137.615 274.492 135.48 278.4C134.461 280.343 133.004 282.022 131.222 283.303C129.441 284.584 127.386 285.432 125.22 285.78C124.643 285.852 124.062 285.886 123.48 285.88ZM121.99 250.65C121.462 250.649 120.934 250.682 120.41 250.75C118.524 251.046 116.729 251.763 115.157 252.847C113.586 253.93 112.278 255.353 111.33 257.01C109.152 260.813 108.295 265.23 108.892 269.572C109.489 273.914 111.506 277.936 114.63 281.01C115.992 282.349 117.637 283.365 119.444 283.983C121.251 284.601 123.174 284.805 125.07 284.58C127.057 284.249 128.94 283.463 130.572 282.283C132.205 281.103 133.542 279.562 134.48 277.78C136.468 274.115 137.212 269.904 136.6 265.78C135.35 257.09 128.98 250.65 121.94 250.65H121.99Z" fill="#3A2F26"/>
<path d="M165.16 279.11C156.81 279.11 150.01 270.93 150.01 260.86C150.01 250.79 156.81 242.61 165.16 242.61C173.51 242.61 180.32 250.8 180.32 260.86C180.32 270.92 173.48 279.11 165.16 279.11ZM165.16 243.77C157.45 243.77 151.16 251.44 151.16 260.86C151.16 270.28 157.44 277.95 165.16 277.95C172.88 277.95 179.16 270.29 179.16 260.86C179.16 251.43 172.88 243.77 165.16 243.77Z" fill="#3A2F26"/>
<path d="M137.48 271.16L136.94 270.16C141.575 267.895 146.742 266.941 151.88 267.4L151.75 268.55C146.846 268.14 141.921 269.041 137.48 271.16Z" fill="#3A2F26"/>
<path d="M78.4 281.55L77.84 280.55C87.2054 275.35 97.4566 271.939 108.07 270.49L108.17 271.65C97.7184 273.074 87.6231 276.431 78.4 281.55Z" fill="#3A2F26"/>
<g style="mix-blend-mode:multiply">
<path d="M50.23 343.69C40.98 345.53 34.86 353.98 36.56 362.58C42.04 366.86 55.64 366.18 70.12 361.44C70.4649 359.623 70.4649 357.757 70.12 355.94C68.38 347.34 59.48 341.85 50.23 343.69Z" fill="#FFE4C7"/>
</g>
<path d="M54.1202 373.382C63.3784 371.545 69.5002 363.083 67.7937 354.48C66.0872 345.877 57.1986 340.392 47.9405 342.229C38.6823 344.065 32.5604 352.528 34.2669 361.131C35.9734 369.733 44.8621 375.218 54.1202 373.382Z" fill="#FFD757"/>
<g style="mix-blend-mode:multiply">
<path d="M54.1202 373.382C63.3784 371.545 69.5002 363.083 67.7937 354.48C66.0872 345.877 57.1986 340.392 47.9405 342.229C38.6823 344.065 32.5604 352.528 34.2669 361.131C35.9734 369.733 44.8621 375.218 54.1202 373.382Z" fill="#FFE4C7"/>
</g>
<g style="mix-blend-mode:multiply">
<path d="M62.42 355.52C63.58 361.36 59.42 367.1 53.15 368.34C46.88 369.58 40.83 365.87 39.68 360.03C38.53 354.19 42.68 348.46 48.95 347.21C55.22 345.96 61.27 349.69 62.42 355.52Z" fill="#FFE4C7"/>
</g>
<g style="mix-blend-mode:multiply">
<path d="M62.42 355.52C63.58 361.36 59.42 367.1 53.15 368.34C46.88 369.58 40.83 365.87 39.68 360.03C38.53 354.19 42.68 348.46 48.95 347.21C55.22 345.96 61.27 349.69 62.42 355.52Z" fill="#FFE4C7"/>
</g>
<g style="mix-blend-mode:multiply">
<path d="M62.42 355.52C63.58 361.36 59.42 367.1 53.15 368.34C46.88 369.58 40.83 365.87 39.68 360.03C38.53 354.19 42.68 348.46 48.95 347.21C55.22 345.96 61.27 349.69 62.42 355.52Z" fill="#FFE4C7"/>
</g>
<path d="M52.63 367.74C52.63 367.74 61.38 365.8 63.09 359.29C64.8 352.78 57.2 350.29 57.2 350.29C57.2 350.29 63.2 331.77 58.6 331.61C54 331.45 51.77 349.67 51.77 349.67C51.77 349.67 46.58 334.25 43.48 335.26C40.38 336.27 47.9 351.92 47.9 351.92C47.9 351.92 41.52 350.68 42.73 356.92C42.73 356.92 36.89 356.76 38.73 361.34C40.57 365.92 46.81 372.16 52.63 367.74Z" fill="#FFCAA6"/>
<path d="M51.67 364.76C51.555 364.76 51.4446 364.715 51.3624 364.635C51.2801 364.554 51.2326 364.445 51.23 364.33C51.2493 362.937 51.5916 361.568 52.23 360.33C51.4271 360.734 50.515 360.868 49.63 360.71C49.0921 360.627 48.5851 360.406 48.1589 360.067C47.7328 359.729 47.4023 359.285 47.2 358.78C47.0527 358.318 47.0356 357.825 47.1502 357.354C47.2649 356.883 47.507 356.453 47.85 356.11C50.39 353.22 55.66 353.39 55.85 353.4C55.9126 353.39 55.9766 353.395 56.0375 353.412C56.0985 353.43 56.1549 353.46 56.203 353.501C56.251 353.543 56.2895 353.594 56.316 353.651C56.3424 353.709 56.3562 353.772 56.3562 353.835C56.3562 353.898 56.3424 353.961 56.316 354.019C56.2895 354.076 56.251 354.127 56.203 354.169C56.1549 354.21 56.0985 354.24 56.0375 354.258C55.9766 354.275 55.9126 354.28 55.85 354.27C55.8 354.27 50.76 354.11 48.5 356.69C48.2624 356.919 48.0928 357.209 48.0098 357.529C47.9269 357.848 47.9339 358.184 48.03 358.5C48.1809 358.858 48.4226 359.171 48.7312 359.408C49.0398 359.645 49.4047 359.797 49.79 359.85C50.5 359.934 51.2196 359.826 51.8739 359.538C52.5281 359.249 53.0931 358.791 53.51 358.21C53.5466 358.166 53.5914 358.13 53.642 358.104C53.6925 358.078 53.7478 358.062 53.8045 358.058C53.8613 358.053 53.9184 358.06 53.9725 358.077C54.0267 358.095 54.0768 358.123 54.12 358.16C54.1648 358.194 54.2022 358.237 54.2301 358.286C54.258 358.335 54.2758 358.389 54.2823 358.445C54.2888 358.501 54.284 358.558 54.2681 358.612C54.2523 358.666 54.2257 358.716 54.19 358.76C54.19 358.76 52.06 361.51 52.13 364.29C52.13 364.405 52.085 364.515 52.0046 364.598C51.9243 364.68 51.8149 364.727 51.7 364.73L51.67 364.76Z" fill="#EF7348"/>
<path d="M109.39 336.87L98.1 345.87C98.1 345.87 86.0301 326.27 101.88 324.3C101.88 324.31 102.3 333.3 109.39 336.87Z" fill="white"/>
<path d="M126.84 337L136.32 342.5C136.32 342.5 140.74 332.03 130.63 325.59L129.63 325.69C129.63 325.69 130.13 335.1 126.84 337Z" fill="white"/>
</g>
<defs>
<linearGradient id="paint0_linear_233_255" x1="347.235" y1="214.215" x2="347.235" y2="2.52219e-06" gradientUnits="userSpaceOnUse">
<stop stop-color="#C9B5FC"/>
<stop offset="1" stop-color="#CED4F0"/>
</linearGradient>
<linearGradient id="paint1_linear_233_255" x1="347.235" y1="208.327" x2="347.235" y2="10.2688" gradientUnits="userSpaceOnUse">
<stop offset="0.01" stop-color="#281742"/>
<stop offset="1" stop-color="#322D45"/>
</linearGradient>
<linearGradient id="paint2_linear_233_255" x1="347.235" y1="201.932" x2="347.235" y2="12.7592" gradientUnits="userSpaceOnUse">
<stop offset="0.01" stop-color="#3A2A51"/>
<stop offset="1" stop-color="#49455A"/>
</linearGradient>
<linearGradient id="paint3_linear_233_255" x1="347.235" y1="10.2688" x2="347.235" y2="0.661011" gradientUnits="userSpaceOnUse">
<stop offset="0.01" stop-color="#281742"/>
<stop offset="1" stop-color="#322D45"/>
</linearGradient>
<linearGradient id="paint4_linear_233_255" x1="114.896" y1="186.483" x2="500.513" y2="186.483" gradientUnits="userSpaceOnUse">
<stop stop-color="#540068"/>
<stop offset="1" stop-color="#8F9299"/>
</linearGradient>
<linearGradient id="paint5_linear_233_255" x1="344.114" y1="218.827" x2="344.114" y2="209.619" gradientUnits="userSpaceOnUse">
<stop stop-color="#C9B5FC"/>
<stop offset="1" stop-color="#CED4F0"/>
</linearGradient>
<linearGradient id="paint6_linear_233_255" x1="338.319" y1="209.618" x2="338.319" y2="194.246" gradientUnits="userSpaceOnUse">
<stop offset="0.01" stop-color="#3A2A51"/>
<stop offset="1" stop-color="#49455A"/>
</linearGradient>
<radialGradient id="paint7_radial_233_255" cx="0" cy="0" r="1" gradientUnits="userSpaceOnUse" gradientTransform="translate(338.196 204.561) scale(20.3685 20.3685)">
<stop stop-color="#4DA7FF"/>
<stop offset="0.98" stop-color="#72FFF0"/>
</radialGradient>
<linearGradient id="paint8_linear_233_255" x1="348.311" y1="496.652" x2="348.311" y2="390.444" gradientUnits="userSpaceOnUse">
<stop offset="0.03" stop-color="#A18BA1"/>
<stop offset="0.99" stop-color="#474A6A"/>
</linearGradient>
<linearGradient id="paint9_linear_233_255" x1="393.552" y1="496.652" x2="393.552" y2="390.444" gradientUnits="userSpaceOnUse">
<stop offset="0.03" stop-color="#D9BFC1"/>
<stop offset="0.99" stop-color="#7D7996"/>
</linearGradient>
<linearGradient id="paint10_linear_233_255" x1="308.097" y1="391.859" x2="308.097" y2="235.567" gradientUnits="userSpaceOnUse">
<stop stop-color="#C9B5FC"/>
<stop offset="1" stop-color="#CED4F0"/>
</linearGradient>
<linearGradient id="paint11_linear_233_255" x1="268.113" y1="376.394" x2="268.113" y2="238.949" gradientUnits="userSpaceOnUse">
<stop stop-color="white"/>
<stop offset="1" stop-color="#540068"/>
</linearGradient>
<linearGradient id="paint12_linear_233_255" x1="274.6" y1="348.924" x2="274.6" y2="238.872" gradientUnits="userSpaceOnUse">
<stop stop-color="white"/>
<stop offset="1" stop-color="#540068"/>
</linearGradient>
<linearGradient id="paint13_linear_233_255" x1="224.547" y1="370.752" x2="224.547" y2="291.246" gradientUnits="userSpaceOnUse">
<stop offset="0.01" stop-color="#281742"/>
<stop offset="1" stop-color="#433E54"/>
</linearGradient>
<linearGradient id="paint14_linear_233_255" x1="313.4" y1="357.932" x2="313.4" y2="286.942" gradientUnits="userSpaceOnUse">
<stop offset="0.01" stop-color="#281742"/>
<stop offset="1" stop-color="#433E54"/>
</linearGradient>
<linearGradient id="paint15_linear_233_255" x1="219.213" y1="444.279" x2="299.734" y2="444.279" gradientUnits="userSpaceOnUse">
<stop offset="0.03" stop-color="#A18BA1"/>
<stop offset="0.99" stop-color="#474A6A"/>
</linearGradient>
<linearGradient id="paint16_linear_233_255" x1="301.978" y1="497.375" x2="301.978" y2="391.167" gradientUnits="userSpaceOnUse">
<stop offset="0.03" stop-color="#D9BFC1"/>
<stop offset="0.99" stop-color="#7D7996"/>
</linearGradient>
<linearGradient id="paint17_linear_233_255" x1="403.068" y1="304.928" x2="427.602" y2="304.928" gradientUnits="userSpaceOnUse">
<stop stop-color="#49455A"/>
<stop offset="0.99" stop-color="#3A2A51"/>
</linearGradient>
<linearGradient id="paint18_linear_233_255" x1="464.404" y1="498.774" x2="464.404" y2="354.135" gradientUnits="userSpaceOnUse">
<stop offset="0.03" stop-color="#D9BFC1"/>
<stop offset="0.99" stop-color="#7D7996"/>
</linearGradient>
<linearGradient id="paint19_linear_233_255" x1="385.282" y1="349.631" x2="385.282" y2="310.723" gradientUnits="userSpaceOnUse">
<stop stop-color="#C9B5FC"/>
<stop offset="1" stop-color="#CED4F0"/>
</linearGradient>
<linearGradient id="paint20_linear_233_255" x1="236.353" y1="330.17" x2="192.081" y2="330.17" gradientUnits="userSpaceOnUse">
<stop stop-color="#9D92C4"/>
<stop offset="1" stop-color="#8881D1"/>
</linearGradient>
<linearGradient id="paint21_linear_233_255" x1="239.52" y1="502.909" x2="239.52" y2="349.63" gradientUnits="userSpaceOnUse">
<stop offset="0.03" stop-color="#D9BFC1"/>
<stop offset="0.99" stop-color="#7D7996"/>
</linearGradient>
<linearGradient id="paint22_linear_233_255" x1="215.431" y1="502.909" x2="215.431" y2="349.63" gradientUnits="userSpaceOnUse">
<stop offset="0.03" stop-color="#A18BA1"/>
<stop offset="0.99" stop-color="#474A6A"/>
</linearGradient>
<linearGradient id="paint23_linear_233_255" x1="203.257" y1="497.129" x2="203.257" y2="354.719" gradientUnits="userSpaceOnUse">
<stop offset="0.03" stop-color="#D9BFC1"/>
<stop offset="0.99" stop-color="#7D7996"/>
</linearGradient>
<linearGradient id="paint24_linear_233_255" x1="521.727" y1="502.909" x2="521.727" y2="349.63" gradientUnits="userSpaceOnUse">
<stop offset="0.03" stop-color="#D9BFC1"/>
<stop offset="0.99" stop-color="#7D7996"/>
</linearGradient>
<linearGradient id="paint25_linear_233_255" x1="489.43" y1="502.894" x2="489.43" y2="349.63" gradientUnits="userSpaceOnUse">
<stop offset="0.03" stop-color="#A18BA1"/>
<stop offset="0.99" stop-color="#474A6A"/>
</linearGradient>
<linearGradient id="paint26_linear_233_255" x1="360.916" y1="293.183" x2="360.916" y2="186.314" gradientUnits="userSpaceOnUse">
<stop stop-color="#8881D1"/>
<stop offset="1" stop-color="#9D92C4"/>
</linearGradient>
<linearGradient id="paint27_linear_233_255" x1="365.697" y1="292.814" x2="365.697" y2="186.314" gradientUnits="userSpaceOnUse">
<stop stop-color="#C9B5FC"/>
<stop offset="1" stop-color="#CED4F0"/>
</linearGradient>
<linearGradient id="paint28_linear_233_255" x1="273.232" y1="283.037" x2="443.374" y2="283.037" gradientUnits="userSpaceOnUse">
<stop stop-color="white"/>
<stop offset="1" stop-color="#540068"/>
</linearGradient>
<linearGradient id="paint29_linear_233_255" x1="463.912" y1="504" x2="463.912" y2="375.425" gradientUnits="userSpaceOnUse">
<stop offset="0.01" stop-color="#281742"/>
<stop offset="1" stop-color="#433E54"/>
</linearGradient>
<linearGradient id="paint30_linear_233_255" x1="431.814" y1="502.909" x2="431.814" y2="378.408" gradientUnits="userSpaceOnUse">
<stop offset="0.01" stop-color="#281742"/>
<stop offset="1" stop-color="#433E54"/>
</linearGradient>
<linearGradient id="paint31_linear_233_255" x1="450.368" y1="448.629" x2="450.368" y2="445.985" gradientUnits="userSpaceOnUse">
<stop offset="0.03" stop-color="#D9BFC1"/>
<stop offset="0.99" stop-color="#7D7996"/>
</linearGradient>
<linearGradient id="paint32_linear_233_255" x1="450.368" y1="454.425" x2="450.368" y2="451.765" gradientUnits="userSpaceOnUse">
<stop offset="0.03" stop-color="#D9BFC1"/>
<stop offset="0.99" stop-color="#7D7996"/>
</linearGradient>
<linearGradient id="paint33_linear_233_255" x1="450.368" y1="459.743" x2="450.368" y2="457.084" gradientUnits="userSpaceOnUse">
<stop offset="0.03" stop-color="#D9BFC1"/>
<stop offset="0.99" stop-color="#7D7996"/>
</linearGradient>
<linearGradient id="paint34_linear_233_255" x1="451.691" y1="405.54" x2="451.691" y2="402.881" gradientUnits="userSpaceOnUse">
<stop offset="0.03" stop-color="#D9BFC1"/>
<stop offset="0.99" stop-color="#7D7996"/>
</linearGradient>
<linearGradient id="paint35_linear_233_255" x1="451.691" y1="417.223" x2="451.691" y2="414.579" gradientUnits="userSpaceOnUse">
<stop offset="0.03" stop-color="#D9BFC1"/>
<stop offset="0.99" stop-color="#7D7996"/>
</linearGradient>
<linearGradient id="paint36_linear_233_255" x1="372.446" y1="310.723" x2="372.446" y2="278.702" gradientUnits="userSpaceOnUse">
<stop offset="0.01" stop-color="#3A2A51"/>
<stop offset="1" stop-color="#49455A"/>
</linearGradient>
<linearGradient id="paint37_linear_233_255" x1="372.676" y1="310.646" x2="372.676" y2="304.559" gradientUnits="userSpaceOnUse">
<stop offset="0.01" stop-color="#3A2A51"/>
<stop offset="1" stop-color="#49455A"/>
</linearGradient>
<linearGradient id="paint38_linear_233_255" x1="494.902" y1="303.375" x2="457.194" y2="303.375" gradientUnits="userSpaceOnUse">
<stop stop-color="#CCB5E0"/>
<stop offset="1" stop-color="#EAE8F0"/>
</linearGradient>
<clipPath id="clip0_233_255">
<rect width="490.642" height="505" fill="white" transform="translate(101.906)"/>
</clipPath>
<clipPath id="clip1_233_255">
<rect width="160.5" height="334.14" fill="white" transform="translate(34 178)"/>
</clipPath>
</defs>
</svg>
