<?xml version="1.0" standalone="no"?>
<!DOCTYPE svg PUBLIC "-//W3C//DTD SVG 20010904//EN"
 "http://www.w3.org/TR/2001/REC-SVG-20010904/DTD/svg10.dtd">
<svg version="1.0" xmlns="http://www.w3.org/2000/svg"
 width="64.000000pt" height="64.000000pt" viewBox="0 0 64.000000 64.000000"
 preserveAspectRatio="xMidYMid meet">

<g transform="translate(0.000000,64.000000) scale(0.100000,-0.100000)"
fill="#000000" stroke="none">
<path d="M96 489 l-26 -20 0 -155 c0 -209 -20 -194 250 -194 270 0 250 -15
250 194 l0 155 -26 20 c-25 20 -40 21 -224 21 -184 0 -199 -1 -224 -21z m442
-134 l3 -120 -58 58 c-32 31 -63 57 -68 57 -5 0 -37 -27 -70 -60 l-61 -60 -29
30 c-16 16 -36 30 -44 30 -8 0 -37 -21 -63 -47 l-48 -47 0 135 c0 75 3 139 7
143 4 3 102 5 217 4 l211 -3 3 -120z m-54 -94 c44 -44 57 -64 54 -82 l-3 -24
-212 -3 c-117 -1 -213 1 -213 6 0 4 22 30 50 57 l50 49 35 -34 35 -34 63 62
c34 34 66 62 72 62 6 0 37 -26 69 -59z"/>
<path d="M172 418 c-20 -20 -15 -66 9 -78 47 -26 100 25 72 69 -13 20 -64 26
-81 9z m58 -23 c6 -8 9 -19 5 -25 -8 -13 -42 -13 -50 0 -7 11 12 40 25 40 4 0
13 -7 20 -15z"/>
</g>
</svg>
